<svg fill="#000000" xmlns="http://www.w3.org/2000/svg" width="24px" height="24px" viewBox="0 0 1.56 1.56" enable-background="new 0 0 52 52" xml:space="preserve"><g><path d="M0.603 0.78H1.32c0.021 0 0.042 -0.015 0.045 -0.036l0.132 -0.462c0.009 -0.033 -0.015 -0.06 -0.045 -0.06H0.345l-0.018 -0.069C0.318 0.12 0.288 0.099 0.258 0.099h-0.12c-0.039 0 -0.075 0.03 -0.078 0.069C0.057 0.21 0.093 0.246 0.132 0.246h0.069l0.228 0.771c0.009 0.033 0.036 0.054 0.069 0.054h0.846c0.039 0 0.075 -0.03 0.078 -0.069 0.003 -0.042 -0.033 -0.078 -0.072 -0.078H0.606c-0.033 0 -0.06 -0.021 -0.069 -0.051V0.87c-0.015 -0.045 0.021 -0.09 0.066 -0.09"/><path cx="20.6" cy="44.6" r="4" d="M0.738 1.338A0.12 0.12 0 0 1 0.618 1.458A0.12 0.12 0 0 1 0.498 1.338A0.12 0.12 0 0 1 0.738 1.338z"/><path cx="40.1" cy="44.6" r="4" d="M1.323 1.338A0.12 0.12 0 0 1 1.203 1.458A0.12 0.12 0 0 1 1.083 1.338A0.12 0.12 0 0 1 1.323 1.338z"/></g></svg>