<svg xmlns="http://www.w3.org/2000/svg" xmlns:xlink="http://www.w3.org/1999/xlink" version="1.1" id="Layer_1" x="0px" y="0px" width="201.036" viewBox="0 0 201.036 64" enable-background="new 0 0 1068 340" xml:space="preserve" height="64">
  <path fill="#000" opacity="1.000000" stroke="none" d="M94.356 36.577c-1.917 1.089 -3.917 1.725 -6.044 1.801 -2.284 0.081 -4.573 0.017 -6.928 0.017v9.788h4.377c1.417 0 1.417 0 1.392 1.449 -0.004 0.18 -0.017 0.36 -0.029 0.577H71.096c-0.037 -0.048 -0.101 -0.093 -0.105 -0.141 -0.125 -1.885 -0.125 -1.885 1.78 -1.885h2.004v-30.867H72.187c-1.193 -0.004 -1.22 -0.029 -1.221 -1.189v-1.069h1.025c5.521 0 11.048 -0.136 16.561 0.052 3.173 0.108 6.236 0.969 8.569 3.424 1.564 1.645 2.288 3.661 2.644 5.853 0.516 3.177 -0.156 6.105 -1.849 8.812a9.68 9.68 0 0 1 -3.561 3.376m-13.024 -19.228v19.357c1.573 0 3.096 0.06 4.612 -0.024a8 8 0 0 0 2.573 -0.532c2.636 -1.072 3.741 -3.457 4.204 -5.945 0.513 -2.772 0.661 -5.656 -0.297 -8.437 -0.893 -2.589 -2.908 -4.357 -5.784 -4.445a58.667 58.667 0 0 0 -5.309 0.028" stroke-width="0.18823595505617977"/>
  <path fill="#000" opacity="1.000000" stroke="none" d="M51.209 17.288c-0.617 -0.216 -0.573 0.212 -0.573 0.592v13.736c2.356 0 4.653 0.089 6.94 -0.036 1.189 -0.065 2.2 -1.549 2.281 -2.901 0.005 -0.093 0 -0.188 0.001 -0.281 0.017 -1.909 0.343 -2.148 2.257 -1.585v10.6c0 1.32 -0.573 1.753 -1.844 1.336 -0.185 -0.06 -0.369 -0.392 -0.396 -0.616 -0.065 -0.557 0.057 -1.148 -0.069 -1.684 -0.385 -1.6 -1.513 -2.261 -2.932 -2.345 -2.029 -0.117 -4.072 -0.029 -6.173 -0.029v14.092h7.201c0.093 0.405 0.208 0.728 0.237 1.057 0.061 0.685 -0.136 1.061 -0.972 1.057a1594.667 1594.667 0 0 0 -16.657 -0.004c-0.705 0.001 -1.053 -0.141 -0.996 -0.933 0.049 -0.669 0.043 -1.22 0.988 -1.165 1.212 0.068 2.429 0.016 3.689 0.016v-30.88c-1.26 0 -2.521 0.043 -3.781 -0.013 -0.981 -0.044 -0.88 -0.812 -0.889 -1.512 -0.008 -0.601 0.272 -0.736 0.805 -0.736 9.348 0.009 18.696 0.005 28.12 0.005v10.1h-1.696c-0.344 -1.525 -0.64 -3.077 -1.048 -4.597 -0.493 -1.84 -2.28 -3.177 -4.185 -3.24 -0.437 -0.013 -0.877 -0.001 -1.468 -0.057a400 400 0 0 0 -8.493 -0.105c-0.113 0 -0.228 0.085 -0.343 0.133" stroke-width="0.18823595505617977"/>
  <path fill="#000" opacity="1.000000" stroke="none" d="M96 9.788h10.108v6.352h-3.096V13.049H36.909v3.091h-3.332V9.788z" stroke-width="0.18823595505617977"/>
  <path fill="#000" opacity="1.000000" stroke="none" d="M86.4 51.764h16.548v-3.152h3.144v6.289H33.56v-6.289h3.284v3.152z" stroke-width="0.18823595505617977"/>
  <path fill="#000" opacity="1.000000" stroke="none" d="M134.968 51.564c0.485 -1.404 0.9 -2.797 1.313 -4.192 0.052 -0.173 0.112 -0.344 0.189 -0.581l-0.609 -0.204 0.016 -0.092c0.837 0 1.684 -0.061 2.513 0.024 0.437 0.045 1.076 0.241 1.221 0.557a1.2 1.2 0 0 1 -0.476 1.552l-0.369 0.236v2.456l0.932 -0.908 0.284 0.253c-0.257 0.352 -0.445 0.828 -0.792 1.02 -0.3 0.165 -0.853 0.137 -1.152 -0.044 -0.205 -0.124 -0.217 -0.653 -0.221 -1.004 -0.005 -0.36 0.2 -0.744 0.129 -1.077 -0.049 -0.24 -0.377 -0.528 -0.628 -0.58 -0.18 -0.037 -0.556 0.233 -0.632 0.444 -0.221 0.616 -0.339 1.272 -0.509 1.973l0.836 0.32h-2.492c0.1 -0.072 0.141 -0.116 0.189 -0.132 0.057 -0.017 0.124 -0.009 0.257 -0.024m2.512 -2.812c0.364 -0.289 0.784 -0.532 1.076 -0.881 0.385 -0.464 0.193 -0.813 -0.343 -1.08 -0.561 -0.277 -0.74 0.073 -0.881 0.46a10 10 0 0 0 -0.348 1.32c-0.008 0.036 0.225 0.121 0.496 0.181" stroke-width="0.18823595505617977"/>
  <path fill="#000" opacity="1.000000" stroke="none" d="M163.341 50.929c-0.26 0.605 -0.608 0.873 -1.248 0.853 -0.733 -0.024 -0.804 -0.452 -0.756 -0.985 0.033 -0.361 0.221 -0.72 0.205 -1.073 -0.012 -0.26 -0.197 -0.665 -0.392 -0.724 -0.228 -0.069 -0.708 0.089 -0.8 0.281a6 6 0 0 0 -0.509 1.745c-0.032 0.228 0.272 0.501 0.397 0.712h-1.933c0.176 -0.296 0.469 -0.632 0.589 -1.021 0.396 -1.277 0.728 -2.576 1.101 -3.929l-0.872 -0.293c1.153 0 2.033 -0.056 2.904 0.025 0.4 0.037 1.076 0.313 1.097 0.532 0.048 0.485 -0.201 1.021 -0.412 1.5 -0.081 0.185 -0.381 0.276 -0.44 0.316l0.252 2.224c0.576 -0.752 0.576 -0.752 0.816 -0.161m-2.773 -2.188c0.404 -0.112 0.904 -0.116 1.184 -0.365 0.28 -0.253 0.44 -0.748 0.452 -1.144 0.005 -0.173 -0.577 -0.568 -0.736 -0.497 -0.297 0.128 -0.536 0.493 -0.696 0.812a2.32 2.32 0 0 0 -0.201 1.196" stroke-width="0.18823595505617977"/>
  <path fill="#000" opacity="1.000000" stroke="none" d="M139.857 14.328a86.667 86.667 0 0 1 -0.953 3.412c-0.08 0.256 -0.301 0.469 -0.457 0.701 -0.168 -0.217 -0.396 -0.413 -0.496 -0.66 -0.433 -1.061 -0.829 -2.14 -1.348 -3.2 -0.1 1.205 -1.212 2.296 -0.52 3.677h-1.908c0.829 -0.269 1.045 -0.88 1.196 -1.652 0.213 -1.1 0.581 -2.169 0.901 -3.321l-0.7 -0.237c1.649 -0.136 1.652 -0.136 2.209 1.432 0.121 0.344 0.229 0.693 0.34 1.041 0.109 0.344 0.213 0.689 0.397 1.281 0.357 -1.217 0.677 -2.201 0.909 -3.204 0.033 -0.148 -0.344 -0.389 -0.521 -0.58h1.745c-0.241 0.376 -0.517 0.804 -0.793 1.308" stroke-width="0.18823595505617977"/>
  <path fill="#000" opacity="1.000000" stroke="none" d="M151.164 14.444c0.017 -0.68 -0.032 -1.2 -0.824 -1.276 -0.757 -0.072 -1.165 0.189 -1.268 0.969 -0.053 0.408 -0.228 0.8 -0.349 1.212 0.708 0.273 0.972 -0.236 1.296 -0.641 0.109 -0.137 0.241 -0.26 0.361 -0.389 0.029 0.2 0.121 0.413 0.08 0.597 -0.156 0.677 -0.353 1.345 -0.537 2.016l-0.252 0.056c-0.069 -0.252 -0.109 -0.517 -0.22 -0.749 -0.104 -0.22 -0.28 -0.405 -0.425 -0.608 -0.168 0.18 -0.416 0.332 -0.488 0.544 -0.193 0.569 -0.312 1.165 -0.548 2.093 0.896 -0.256 1.628 -0.308 2.157 -0.661 0.485 -0.325 0.753 -0.976 1.117 -1.485l0.208 0.128 -0.556 1.98h-4.548c1.148 -0.384 0.889 -1.436 1.181 -2.188 0.339 -0.869 0.488 -1.816 0.733 -2.784l-0.753 -0.217h4.481c-0.096 0.432 -0.161 0.881 -0.313 1.3 -0.04 0.109 -0.345 0.124 -0.537 0.101" stroke-width="0.18823595505617977"/>
  <path fill="#000" opacity="1.000000" stroke="none" d="M130.257 47.236a4.667 4.667 0 0 1 0.784 -0.557c1.444 -0.813 2.548 -0.384 2.923 1.212 0.428 1.829 -1.28 4.232 -3.001 4.068 -0.749 -0.072 -1.569 -0.681 -1.628 -1.396 -0.096 -1.184 -0.076 -2.364 0.924 -3.325m0.189 1.66c-0.061 0.485 -0.232 0.988 -0.157 1.452 0.068 0.42 0.32 0.992 0.645 1.128 0.265 0.109 0.884 -0.229 1.125 -0.54 0.812 -1.045 0.952 -2.308 0.817 -3.585 -0.068 -0.661 -0.785 -0.924 -1.225 -0.424 -0.473 0.54 -0.804 1.204 -1.205 1.972" stroke-width="0.18823595505617977"/>
  <path fill="#000" opacity="1.000000" stroke="none" d="M154.357 51.764h-2.365c1.553 -0.381 1.168 -1.629 1.561 -2.441 0.36 -0.745 0.409 -1.641 0.612 -2.536l-0.789 -0.256h4.576l-0.273 1.628 -0.229 0.08c-0.089 -0.209 -0.225 -0.412 -0.261 -0.632 -0.108 -0.664 -0.489 -0.924 -1.141 -0.933 -0.565 -0.009 -0.953 0.04 -0.968 0.777 -0.009 0.476 -0.256 0.945 -0.397 1.42l0.328 0.217 1.397 -1.305 0.149 0.084 -0.777 2.713c-0.532 -0.489 0.1 -1.732 -1.164 -1.392l-0.649 2.256c1.753 0.617 2.472 -0.625 3.237 -1.944 0.212 1.556 -0.36 2.264 -1.62 2.264z" stroke-width="0.18823595505617977"/>
  <path fill="#000" opacity="1.000000" stroke="none" d="M143.624 49.873c0.028 -0.708 -0.32 -0.817 -0.889 -0.692l-0.593 2.293c1.669 0.488 2.524 -0.501 3.156 -1.905 0.24 1.629 -0.24 2.196 -1.648 2.196h-3.105c1.364 -1.16 1.08 -3.036 1.732 -4.512 0.076 -0.173 -0.136 -0.476 -0.216 -0.72h4.112l-0.48 1.708 -0.332 -0.016c0.073 -0.993 -0.213 -1.676 -1.312 -1.536 -1.364 0.176 -0.672 1.472 -1.244 2.085l0.288 0.28 1.673 -1.404 -0.768 2.828 -0.285 -0.043a10.667 10.667 0 0 1 -0.084 -0.561" stroke-width="0.18823595505617977"/>
  <path fill="#000" opacity="1.000000" stroke="none" d="M127.616 14.636c-0.189 0.024 -0.453 0.028 -0.544 -0.096 -0.192 -0.265 -0.233 -0.652 -0.448 -0.888 -0.201 -0.224 -0.6 -0.496 -0.816 -0.429 -0.316 0.096 -0.641 0.433 -0.772 0.749 -0.065 0.161 0.233 0.549 0.452 0.737 0.365 0.316 0.772 0.617 1.212 0.812 0.764 0.34 0.932 1.041 0.673 1.6 -0.248 0.54 -0.845 1.045 -1.408 1.272 -0.445 0.177 -1.072 -0.084 -1.616 -0.164 -0.281 -0.04 -0.56 -0.104 -1.076 -0.204l0.577 -2.065 0.3 0.025c0.185 0.892 0.2 1.977 1.392 2.037 0.408 0.02 0.841 -0.461 1.449 -0.825 -0.697 -0.528 -1.12 -0.881 -1.577 -1.184 -0.668 -0.444 -1.272 -0.933 -1.165 -1.832 0.125 -1.061 1.369 -1.665 2.465 -1.268 0.336 0.121 0.708 0.14 1.152 0.22 -0.068 0.396 -0.157 0.908 -0.252 1.5" stroke-width="0.18823595505617977"/>
  <path fill="#000" opacity="1.000000" stroke="none" d="M131.976 29.244c-1.56 0.697 -2.545 0.024 -2.433 -1.752 0.064 -1.001 0.301 -2 1.117 -2.824 0.673 -0.677 1.46 -0.773 2.092 -0.468 0.405 0.196 0.601 1.057 0.681 1.648 0.181 1.353 -0.265 2.509 -1.457 3.393m0.713 -4.053 -0.421 -1.025c-0.368 0.397 -0.764 0.661 -0.916 1.025 -0.324 0.776 -0.505 1.609 -0.776 2.409 -0.196 0.584 -0.316 1.224 0.297 1.5 0.165 0.073 0.852 -0.616 1.036 -1.064 0.353 -0.857 0.517 -1.792 0.777 -2.844" stroke-width="0.18823595505617977"/>
  <path fill="#000" opacity="1.000000" stroke="none" d="M126.545 26.973c-0.733 0.373 -1.412 0.705 -2.129 1.057 1.065 0.888 1.877 0.708 2.561 -0.701 0.109 1.208 -0.312 1.844 -0.98 2.16 -0.82 0.388 -1.34 -0.264 -1.881 -0.841l0.085 0.673 -0.86 0.04c0.193 -0.536 0.233 -1.081 0.528 -1.361 0.66 -0.629 1.46 -1.109 2.176 -1.685 0.229 -0.185 0.496 -0.464 0.529 -0.728 0.044 -0.352 -0.009 -0.868 -0.236 -1.053 -0.192 -0.156 -0.733 -0.029 -1.033 0.133 -0.293 0.16 -0.672 0.5 0.024 0.781 0.172 0.069 0.201 0.489 0.321 0.816 -0.628 0.104 -1.172 0.301 -1.393 -0.412 -0.148 -0.469 0.636 -1.62 1.145 -1.752 0.796 -0.208 1.973 0.148 2.192 0.664 0.3 0.713 -0.092 1.573 -1.048 2.212" stroke-width="0.18823595505617977"/>
  <path fill="#000" opacity="1.000000" stroke="none" d="M136.524 24.516c0.676 -0.176 1.304 -0.425 1.913 -0.388 0.888 0.053 1.352 1.432 0.676 2.072 -0.588 0.556 -1.36 0.92 -2.057 1.357 -0.281 0.176 -0.584 0.317 -0.905 0.489 1.553 0.772 1.553 0.772 2.405 -0.352 0.18 0.58 -0.052 1.337 -0.505 1.64 -1.005 0.669 -1.492 -0.232 -2.005 -0.664l-0.592 0.796c-0.405 -0.893 -0.193 -1.444 0.516 -1.82 0.537 -0.285 1.088 -0.588 1.541 -0.984a2.667 2.667 0 0 0 0.8 -1.185c0.08 -0.28 -0.14 -0.764 -0.384 -0.973 -0.129 -0.112 -0.608 0.137 -0.904 0.276 -0.153 0.072 -0.252 0.26 -0.368 0.385 0.043 0.088 0.052 0.153 0.089 0.189 0.213 0.208 0.436 0.405 0.653 0.609 -0.248 0.128 -0.536 0.4 -0.733 0.345 -0.232 -0.061 -0.536 -0.409 -0.537 -0.636 -0.001 -0.368 0.213 -0.737 0.393 -1.161" stroke-width="0.18823595505617977"/>
  <path fill="#000" opacity="1.000000" stroke="none" d="M126.689 49.344c-0.205 0.964 -0.205 0.964 -0.768 1.02 0.045 -0.185 0.161 -0.381 0.112 -0.516 -0.096 -0.253 -0.288 -0.469 -0.44 -0.704 -0.173 0.125 -0.448 0.217 -0.505 0.385 -0.216 0.625 -0.361 1.276 -0.557 2l0.817 0.073 0.001 0.1h-2.221c0.153 -0.26 0.448 -0.596 0.568 -0.984 0.396 -1.276 0.728 -2.573 1.101 -3.928l-0.772 -0.264h4.54l-0.425 1.664c-0.432 -0.796 -0.608 -1.753 -1.788 -1.501 -1.225 0.261 -0.636 1.493 -1.129 2.148 1.081 0.544 1.049 -0.86 1.925 -1.144 -0.189 0.661 -0.32 1.116 -0.456 1.648" stroke-width="0.18823595505617977"/>
  <path fill="#000" opacity="1.000000" stroke="none" d="M128.517 35.872c-0.164 0.572 -0.292 1.072 -0.417 1.569l-0.204 0.073 -0.568 -1.969 -0.444 -0.021 -1.365 4.848 0.796 0.168 -0.005 0.073h-2.633c1.025 -0.036 1.001 -0.832 1.173 -1.552 0.265 -1.116 0.621 -2.212 0.944 -3.337 -1.309 -0.096 -1.272 1.208 -1.941 1.772 -0.335 -1.208 0.273 -2.105 1.361 -2.105 0.908 0 1.816 -0.025 2.72 0.017 0.212 0.009 0.413 0.253 0.584 0.464" stroke-width="0.18823595505617977"/>
  <path fill="#000" opacity="1.000000" stroke="none" d="M143.732 13.209c-1.136 0.881 -1.492 2.097 -1.573 3.365 -0.029 0.468 0.28 1.137 0.653 1.385 0.232 0.153 0.932 -0.24 1.316 -0.525s0.641 -0.748 1.056 -1.044c-0.165 1.012 -0.644 1.776 -1.672 2.012 -0.732 0.168 -1.517 0.104 -1.901 -0.608a3.867 3.867 0 0 1 -0.409 -1.829c0.024 -1.709 1.752 -3.365 3.209 -3.156 0.505 0.073 1.001 0.224 1.564 0.353 -0.061 0.213 -0.16 0.545 -0.252 0.88 -0.093 0.339 -0.18 0.677 -0.305 1.153 -0.648 -0.728 -0.216 -2.137 -1.684 -1.989" stroke-width="0.18823595505617977"/>
  <path fill="#000" opacity="1.000000" stroke="none" d="M149.249 46.696a10 10 0 0 0 -0.345 1.785c-0.044 0.465 -0.009 0.937 -0.009 1.669 0.661 -1.009 1.236 -1.805 1.708 -2.66 0.133 -0.241 -0.033 -0.649 -0.061 -0.961h1.721c-0.445 0.544 -0.997 1.148 -1.469 1.809 -0.761 1.068 -1.465 2.173 -2.208 3.257 -0.109 0.161 -0.284 0.28 -0.632 0.613 0 -1.761 0.025 -3.224 -0.017 -4.684 -0.009 -0.345 -0.249 -0.685 -0.376 -1.004h2.105c-0.001 0.029 0.004 0.053 -0.005 0.072 -0.012 0.025 -0.032 0.064 -0.053 0.068 -0.092 0.013 -0.185 0.016 -0.357 0.032" stroke-width="0.18823595505617977"/>
  <path fill="#000" opacity="1.000000" stroke="none" d="M135.709 38.932c0.233 -0.932 0.489 -1.78 0.669 -2.644 0.056 -0.272 -0.092 -0.585 -0.148 -0.877h1.76c-0.217 0.357 -0.569 0.741 -0.704 1.192 -0.372 1.249 -0.652 2.525 -0.964 3.777 1.673 0.504 2.464 -0.564 3.124 -1.968 0.377 1.344 -0.229 2.244 -1.32 2.245h-3.297c0.265 -0.5 0.569 -1.073 0.88 -1.725" stroke-width="0.18823595505617977"/>
  <path fill="#000" opacity="1.000000" stroke="none" d="M142.264 35.388h1.729c-0.217 0.335 -0.581 0.701 -0.725 1.141 -0.343 1.04 -0.584 2.112 -0.856 3.172 -0.057 0.224 -0.072 0.46 -0.105 0.688 1.661 0.177 1.892 0.049 2.656 -1.321 0.117 -0.212 0.356 -0.357 0.537 -0.533l0.188 0.141 -0.641 1.957h-4.224c0.171 -0.293 0.457 -0.637 0.58 -1.033 0.392 -1.277 0.721 -2.573 1.089 -3.92l-0.768 -0.248c0.277 -0.025 0.372 -0.033 0.541 -0.043" stroke-width="0.18823595505617977"/>
  <path fill="#000" opacity="1.000000" stroke="none" d="M132.004 38.284c-0.148 0.544 -0.304 1.013 -0.352 1.496 -0.028 0.277 0.116 0.573 0.184 0.861h-2.028c1.125 -0.405 0.893 -1.449 1.18 -2.208 0.329 -0.876 0.488 -1.816 0.733 -2.777l-0.809 -0.217h2.613c-1.413 0.46 -1.004 1.852 -1.521 2.848" stroke-width="0.18823595505617977"/>
  <path fill="#000" opacity="1.000000" stroke="none" d="M130.884 16.433c0.305 -1.093 0.568 -2.121 0.84 -3.188l-0.56 -0.133 0.013 -0.088h2.276c-1.037 0.469 -2.217 4.581 -1.441 5.212h-2.164c1.021 -0.192 0.721 -1.128 1.036 -1.8" stroke-width="0.18823595505617977"/>
  <path fill="#000" opacity="1.000000" stroke="none" d="M143.673 27.184c-0.161 0.661 -0.285 1.256 -0.421 1.901l0.82 0.229h-2.68c0.896 -0.065 1.021 -0.713 1.128 -1.437a6 6 0 0 1 0.436 -1.481c0.269 -0.621 0.088 -0.865 -0.828 -0.789l2.24 -1.444 0.128 0.188c-0.261 0.921 -0.521 1.841 -0.82 2.832" stroke-width="0.18823595505617977"/>
  <path fill="#000" opacity="1.000000" stroke="none" d="M51.296 17.301c0.028 -0.06 0.141 -0.145 0.256 -0.145 2.78 0.012 5.561 0.032 8.405 0.092a461.333 461.333 0 0 1 -8.661 0.053" stroke-width="0.18823595505617977"/>
</svg>
