<svg xmlns="http://www.w3.org/2000/svg" xmlns:xlink="http://www.w3.org/1999/xlink" version="1.1" id="Layer_1" x="0px" y="0px" width="100%" viewBox="0 0 936 358" enable-background="new 0 0 936 358" xml:space="preserve">
<path fill="#ECD9DB" opacity="1.000000" stroke="none" d=" M721.000000,359.000000   C480.666656,359.000000 240.833328,359.000000 1.000000,359.000000   C1.000000,239.666672 1.000000,120.333336 1.000000,1.000000   C313.000000,1.000000 625.000000,1.000000 937.000000,1.000000   C937.000000,120.333336 937.000000,239.666672 937.000000,359.000000   C865.166687,359.000000 793.333313,359.000000 721.000000,359.000000  M682.104614,248.071182   C682.104614,248.071182 682.111145,248.091507 681.495972,248.126755   C681.347839,249.111237 681.199646,250.095718 680.948303,251.861252   C680.624390,254.240753 680.300476,256.620270 679.285400,259.176239   C676.236511,263.631989 679.691345,267.386780 682.128723,269.324005   C684.381409,271.114380 688.093567,275.941864 692.295105,270.924133   C692.841736,270.271240 694.047119,270.144226 694.967834,269.834473   C700.756042,267.887177 704.183960,262.780304 703.825439,255.892242   C703.518555,251.660690 703.211670,247.429123 703.023987,242.570038   C703.434692,241.739273 703.845337,240.908524 704.205811,240.179245   C702.602783,239.006195 701.211426,237.949158 699.780579,236.948608   C696.086548,234.365540 690.406372,236.538879 688.626221,241.541687   C687.159973,242.724197 685.693665,243.906708 683.500244,245.152710   C683.028442,246.125153 682.556641,247.097595 682.104614,248.071182  M720.824890,123.066742   C723.040344,123.381416 727.086609,123.470154 727.158081,124.049423   C727.488342,126.725510 727.611633,130.244781 726.123901,132.136780   C723.867798,135.005920 720.050842,136.588989 717.211731,139.077545   C715.036316,140.984436 713.198975,143.344620 711.557495,145.740402   C711.197327,146.266113 712.303467,147.796539 712.734375,148.864273   C713.406555,147.985733 714.078796,147.107178 715.012085,145.973465   C715.012085,145.973465 715.268005,145.713120 715.962585,145.841263   C717.560852,146.986969 719.019287,148.642426 720.797974,149.130661   C722.475159,149.591019 724.688232,149.225418 726.280090,148.440933   C727.212585,147.981415 727.391418,145.992386 727.631836,145.388260   C723.455627,144.659958 719.945435,144.047806 716.435242,143.435654   C716.390564,142.880753 716.345947,142.325851 716.301270,141.770950   C720.586792,139.464081 725.000610,137.362946 729.121826,134.792709   C733.278198,132.200546 734.405457,126.877373 731.898804,123.664894   C729.328735,120.371109 723.915344,120.057243 719.304504,123.162140   C718.066711,125.282532 716.828918,127.402931 715.381042,129.883179   C718.231018,130.882919 720.108398,131.541504 721.985840,132.200089   C722.325623,131.842102 722.665405,131.484100 723.005249,131.126114   C721.801758,129.671555 720.598267,128.217010 719.337952,126.693787   C719.555908,125.591431 719.806824,124.322403 720.824890,123.066742  M696.996643,122.002327   C696.996643,122.002327 697.015625,122.012695 696.549927,121.407394   C693.562805,122.301064 689.842834,122.368767 687.727966,124.245392   C681.714111,129.581650 680.936096,136.957367 682.526550,144.387253   C683.698059,149.860352 688.919312,151.390701 693.872070,148.244980   C700.541138,144.009125 704.083740,131.895126 700.538330,124.679298   C699.952393,123.486710 698.198425,122.868019 696.996643,122.002327  M502.412170,180.941010   C506.238281,176.364868 510.585419,172.123901 513.787231,167.146210   C521.641541,154.935684 523.982605,141.153687 522.827942,126.934334   C521.031311,104.809464 511.436340,87.440338 489.479828,79.908813   C479.233856,76.394257 468.197571,73.805489 457.432404,73.452324   C429.800446,72.545815 402.119568,73.178947 374.458893,73.052818   C370.183075,73.033333 370.164490,75.470299 370.100067,78.557175   C370.030914,81.872299 370.617249,84.101326 374.683350,83.863724   C378.336578,83.650246 382.033661,84.076271 385.673279,83.768829   C390.391724,83.370262 392.236145,84.983086 392.015320,89.923721   C391.465729,102.217384 391.145264,114.529037 391.084473,126.835205   C390.953583,153.329483 391.043640,179.824860 391.043671,206.319778   C391.043701,218.984024 390.883240,231.651428 391.132416,244.310776   C391.220001,248.759140 389.689758,250.310593 385.352112,249.965973   C381.709198,249.676544 378.019867,250.029205 374.360291,249.876541   C370.014313,249.695221 370.243805,252.567566 370.112579,255.538513   C369.977936,258.585663 370.734039,260.049408 374.232086,260.033112   C399.726624,259.914490 425.222565,259.887604 450.716522,260.062225   C454.954742,260.091217 455.050262,258.018585 455.148743,254.829086   C455.258942,251.261215 454.320770,249.682465 450.420990,249.830307   C443.432373,250.095261 436.422577,249.767120 429.429535,249.965271   C426.005859,250.062286 424.722351,248.977600 424.759033,245.426788   C424.910461,230.764496 424.912659,216.098816 424.759277,201.436569   C424.722443,197.916580 425.918549,196.799179 429.380035,196.870453   C438.207764,197.052200 447.066620,197.337158 455.868286,196.819733   C472.526337,195.840469 488.557465,192.561203 502.412170,180.941010  M281.463715,162.935120   C276.299713,162.933655 271.135132,162.886322 265.971863,162.947266   C262.678009,162.986145 261.041046,161.570633 261.045288,158.178818   C261.074646,134.855896 261.091858,111.532852 261.028717,88.210083   C261.019958,84.982529 262.336243,83.778152 265.509857,83.801964   C283.000610,83.933205 300.530731,83.270424 317.970581,84.248283   C330.642151,84.958786 340.214050,90.733421 343.627045,103.493378   C345.209076,109.407890 346.451691,115.530327 346.803070,121.618828   C347.071167,126.264671 349.468842,125.900230 352.621399,126.104973   C356.458191,126.354164 356.976837,124.469818 356.953033,121.293381   C356.845734,106.967201 356.756042,92.637352 356.993134,78.314339   C357.063080,74.089592 355.682220,73.001945 351.591766,73.021408   C319.773285,73.172783 287.953766,73.106537 256.134552,73.106918   C240.141663,73.107109 224.146927,73.239098 208.157059,73.019096   C203.726395,72.958130 203.899719,75.400269 203.916809,78.409607   C203.933609,81.366089 203.604004,84.163704 208.087967,83.889130   C212.569061,83.614731 217.080261,83.828720 221.578262,83.834679   C228.140747,83.843384 228.145432,83.845695 228.145706,90.374763   C228.147919,141.185532 228.148453,191.996292 228.147522,242.807053   C228.147507,244.139633 228.533600,245.674179 228.001938,246.749969   C227.430359,247.906570 226.037430,249.345963 224.916443,249.424255   C219.795410,249.781921 214.593185,250.184464 209.518127,249.646515   C204.656677,249.131165 204.040558,251.167404 203.897324,255.245209   C203.742447,259.654327 205.872589,260.035858 209.368637,260.025513   C238.188934,259.940247 267.009583,259.971466 295.830109,259.983032   C298.543457,259.984131 301.126801,260.416473 301.097412,256.140259   C301.070312,252.198318 300.797363,249.152603 295.827759,249.245758   C286.014282,249.429764 276.196808,249.468948 266.387665,249.779205   C262.993073,249.886581 261.001007,249.281769 261.016815,245.282288   C261.106476,222.626053 261.092773,199.969162 261.019409,177.312805   C261.008820,174.033295 262.391815,172.915939 265.530212,172.959625   C273.691772,173.073242 281.867157,172.734085 290.016327,173.073410   C305.873383,173.733688 311.410950,178.844849 311.827881,193.439606   C311.954773,197.882172 314.036499,198.016235 317.409973,198.150558   C321.285370,198.304855 322.179535,196.706284 322.151917,193.151810   C322.015839,175.660629 321.916321,158.165054 322.198730,140.677429   C322.276245,135.876724 320.613678,134.817383 316.178955,134.863327   C311.778168,134.908936 311.978516,137.364166 311.914734,140.361298   C311.607117,154.818054 307.433624,159.798645 293.363251,162.197739   C289.786621,162.807587 286.089111,162.708374 281.463715,162.935120  M210.500000,45.067642   C199.337143,45.067661 188.171753,45.202381 177.012802,44.993240   C173.204620,44.921867 171.644608,45.865711 171.828491,49.985432   C172.147644,57.135441 171.910049,64.310097 171.914108,71.474419   C171.917831,78.048378 171.922577,78.048378 178.349854,78.076111   C188.043213,78.117928 188.296539,78.109467 187.968796,68.299370   C187.805893,63.424023 188.927246,61.793091 194.223572,61.808315   C263.700287,62.008041 333.177734,61.943623 402.654999,61.943634   C446.640594,61.943642 490.626343,61.982307 534.611633,61.866764   C538.511414,61.856525 540.240723,62.575951 540.168335,67.003540   C539.984558,78.243538 540.197327,78.246925 552.013855,78.083519   C552.347046,78.078911 552.684448,78.046379 553.012878,78.085625   C556.142578,78.459549 557.031372,76.930321 556.976990,73.989899   C556.838440,66.494904 556.932739,58.995655 556.929077,51.498112   C556.925964,45.066326 556.923035,45.064915 550.389099,45.064957   C437.426056,45.065685 324.463043,45.066788 210.500000,45.067642  M531.500000,284.931305   C538.497498,284.933228 545.500488,284.770416 552.490112,285.005707   C556.053589,285.125641 557.089661,283.828308 556.997375,280.395660   C556.791565,272.737183 556.673096,265.057281 557.030762,257.410004   C557.239746,252.942093 555.784729,251.722260 551.401794,251.816086   C540.231384,252.055191 540.044739,251.852661 540.156128,263.101746   C540.196167,267.139984 538.855713,268.141754 534.997253,268.138824   C421.036957,268.051910 307.076569,268.051514 193.116257,268.139526   C189.242279,268.142517 187.937454,267.116516 187.978729,263.094452   C188.097168,251.548874 187.921951,251.652893 176.237793,251.857590   C173.051727,251.913406 171.775711,252.804306 171.862762,256.131561   C172.050095,263.290802 171.917419,270.458374 171.915955,277.622559   C171.914459,284.925751 171.914581,284.930359 179.122192,284.930420   C296.248138,284.931396 413.374054,284.931091 531.500000,284.931305  M736.856384,65.558891   C738.151489,64.454338 739.446594,63.349781 740.747437,62.240383   C737.603882,62.240383 734.446411,62.240383 730.957642,62.240383   C734.600586,65.089874 732.997070,75.772194 728.195251,80.965256   C726.685791,76.677895 725.161377,72.674606 723.866882,68.598305   C721.637085,61.577015 721.506104,61.434261 714.226990,62.381943   C718.282959,64.851303 713.054565,85.501122 707.391052,89.751511   C710.149597,89.751511 713.018188,89.751511 715.382996,89.751511   C712.556152,82.267075 717.298279,76.259354 719.341187,69.516098   C722.120728,76.699760 724.900269,83.883415 727.679810,91.067078   C728.266785,90.993446 728.853760,90.919815 729.440674,90.846176   C730.610046,86.788399 731.769592,82.727753 732.951660,78.673683   C734.157776,74.537247 735.385986,70.407265 736.856384,65.558891  M717.277100,244.862732   C715.669250,250.786362 714.214905,256.758453 712.368774,262.606903   C711.737366,264.607178 710.123108,266.297211 709.098450,267.907959   C712.067139,267.907959 715.866882,267.907959 720.552673,267.907959   C718.573242,267.100372 717.385986,266.615967 716.014709,266.056488   C716.988708,262.355560 718.026306,259.029816 718.713379,255.633148   C719.433655,252.071762 722.181763,252.721680 724.142151,253.297256   C725.242737,253.620392 726.223694,255.806030 726.443542,257.274567   C726.674988,258.820709 725.714661,260.507690 725.680359,262.141602   C725.644897,263.835999 725.536255,266.488464 726.456665,267.031372   C728.069946,267.982941 730.444641,267.643585 732.645630,267.859222   C731.573730,265.518921 730.604919,264.237457 730.428894,262.855072   C729.992065,259.424316 729.917175,255.947449 729.666077,252.005402   C729.510254,252.086349 730.572266,251.895264 730.908264,251.296661   C732.258606,248.890915 734.817017,245.882156 734.192810,244.007111   C733.560303,242.107010 729.815918,240.576981 727.226135,240.150513   C723.357849,239.513535 719.307068,239.985138 715.941528,239.985138   C716.484741,241.398041 717.012573,242.771027 717.277100,244.862732  M850.503418,253.850479   C850.829346,255.675339 851.347168,257.491608 851.429138,259.327362   C851.517151,261.295807 850.652222,263.465424 851.236084,265.199432   C851.650696,266.430634 853.735657,267.724274 855.153564,267.819275   C856.609497,267.916840 858.160767,266.591766 860.671021,265.423584   C857.992310,265.011353 856.651550,264.805023 856.055786,264.713318   C855.586487,260.212952 855.186340,256.376160 854.757996,252.269043   C854.795837,252.240891 855.157043,251.877136 855.592041,251.664154   C858.791931,250.097351 860.721252,247.639938 859.635010,244.057495   C858.626831,240.733032 855.803528,239.824341 852.468018,239.953812   C848.720520,240.099228 844.963074,239.987244 840.917297,239.987244   C843.682190,243.452225 838.246460,265.069336 834.227600,267.899048   C837.792664,267.899048 841.269226,267.899048 844.745850,267.899048   C844.782227,267.743744 844.818665,267.588440 844.855042,267.433136   C843.703003,267.087585 842.551025,266.742035 841.161499,266.325226   C841.887268,263.241119 842.760559,260.376373 843.202942,257.446564   C843.828247,253.305557 846.012939,252.151474 850.503418,253.850479  M779.455505,86.890884   C780.214172,84.168884 780.836548,81.397232 781.800354,78.749931   C782.173645,77.724632 783.415039,76.196114 784.093262,76.278442   C785.352966,76.431343 786.683594,77.417122 787.610474,78.406631   C788.249573,79.088898 788.258850,80.361084 788.549622,81.369614   C788.850037,81.371971 789.150452,81.374329 789.450867,81.376694   C790.447327,77.499573 791.443848,73.622452 792.440308,69.745331   C789.674500,72.433525 788.162720,76.114403 782.513062,74.172577   C785.156250,70.601295 782.505432,64.653557 788.321899,63.175983   C793.798767,61.784683 797.577332,64.080627 797.312073,71.354034   C797.771667,70.993469 798.231262,70.632896 798.690796,70.272324   C799.120483,67.697998 799.550171,65.123680 800.039917,62.189560   C792.461975,62.189560 785.838806,62.189560 779.242554,62.189560   C781.902344,66.137360 776.113403,86.832932 771.206909,90.017555   C776.617554,90.017555 781.771484,90.019890 786.925476,90.017021   C794.693420,90.012703 796.428284,88.086731 796.159607,79.774391   C789.572693,89.478935 785.899353,91.204216 779.455505,86.890884  M809.850769,252.272720   C807.415283,257.356720 809.249023,264.264435 802.849670,268.024597   C808.200012,268.024597 813.188171,268.025269 818.176392,268.024414   C826.021362,268.023071 828.083008,265.793060 827.544556,257.027618   C824.556824,264.780914 819.845642,269.162872 810.624146,266.025574   C811.583374,262.561432 812.332520,259.184143 813.529724,255.973984   C813.855957,255.099045 815.519714,254.294891 816.590393,254.267334   C817.380981,254.246994 818.438965,255.405334 818.948425,256.286713   C819.447632,257.150360 819.403748,258.327972 819.598206,259.367767   C819.957214,259.398865 820.316162,259.429932 820.675171,259.461029   C821.772583,255.617889 822.869934,251.774750 823.857971,248.314529   C821.035767,249.931351 818.577026,251.339935 816.118286,252.748489   C816.170593,249.987854 816.039917,247.208618 816.317993,244.470917   C816.738403,240.331863 820.102661,240.499695 822.721191,241.184448   C824.703125,241.702744 826.477173,243.512192 827.995239,245.083725   C828.682251,245.794907 828.523132,247.323456 828.747864,248.481186   C829.144104,248.484680 829.540405,248.488190 829.936646,248.491684   C830.495239,245.866180 831.053833,243.240677 831.693237,240.235321   C824.124939,240.235321 817.197449,240.235321 810.944946,240.235321   C811.294556,241.550613 812.099182,242.970413 811.921875,244.254593   C811.583740,246.702911 810.685303,249.073837 809.850769,252.272720  M751.214600,254.712677   C756.171265,252.415665 755.902771,256.728729 756.726929,259.659515   C757.140198,259.615601 757.553467,259.571655 757.966736,259.527710   C758.919373,255.772888 759.871948,252.018066 760.824524,248.263245   C760.383423,248.088867 759.942322,247.914505 759.501221,247.740128   C758.394348,251.422546 756.468018,253.700790 751.037048,252.177551   C752.749329,248.234879 753.765076,244.239365 756.121521,241.329575   C756.997559,240.247833 761.542175,240.939301 763.437622,242.242310   C765.091858,243.379517 765.374451,246.512115 766.263123,248.763123   C766.598572,248.733002 766.934082,248.702896 767.269531,248.672775   C767.753906,246.023865 768.238281,243.374954 768.858582,239.982590   C764.930237,239.982590 761.482910,239.982590 758.035583,239.982590   C754.454468,239.982590 750.873413,239.982590 746.711243,239.982590   C750.627380,242.619598 745.146423,264.667084 740.255127,268.017120   C746.795532,268.017120 753.118713,268.100098 759.438416,267.987061   C763.451843,267.915283 763.860229,267.117310 762.078918,262.732391   C758.251587,267.424194 753.482788,267.785156 747.806824,266.172546   C748.853699,262.360382 749.812439,258.869324 751.214600,254.712677  M651.865540,147.452057   C651.979004,146.540375 652.092468,145.628693 652.277527,144.141647   C655.714478,146.782074 657.826172,152.107788 662.749207,148.868469   C664.815430,147.508881 665.954773,144.740585 667.515442,142.612717   C667.125122,142.354202 666.734741,142.095673 666.344421,141.837158   C662.203186,146.219025 659.732910,146.249542 653.685242,141.863220   C654.577209,141.300293 655.368103,140.716995 656.230286,140.271698   C659.920593,138.365570 663.764160,136.716827 667.298584,134.559265   C670.875671,132.375687 671.891663,127.923882 670.072327,124.506248   C668.370544,121.309372 663.626709,119.855446 659.479126,121.427719   C655.589417,122.902245 653.650757,125.880356 654.178345,129.985992   C654.317017,131.065506 655.801331,132.387207 656.944275,132.768326   C657.639587,133.000183 658.864075,131.645294 659.850830,131.003174   C659.041809,129.994858 658.253601,128.968643 657.412292,127.988068   C657.122681,127.650490 656.700562,127.426651 655.362854,126.406464   C657.946594,124.823357 659.930542,123.212601 662.200134,122.426956   C663.017517,122.144005 665.574097,123.918365 665.524292,124.626633   C665.339844,127.255592 665.059753,130.327805 663.575439,132.300369   C661.765991,134.705139 658.581665,136.026047 656.220764,138.078812   C653.777588,140.203110 651.263062,142.402145 649.436279,145.025635   C648.132996,146.897293 649.129700,147.931396 651.865540,147.452057  M779.106995,248.675659   C779.106995,255.221237 779.106995,261.766815 779.106995,268.312408   C789.185364,260.249420 792.090027,247.085190 802.618530,240.234863   C799.474915,240.234863 796.254944,240.234863 792.940918,240.234863   C794.664917,244.455841 790.186707,253.679199 783.709167,258.743805   C784.915649,252.136520 781.542175,245.673187 786.129822,240.110596   C783.222717,240.110596 779.767639,240.110596 777.344238,240.110596   C777.923767,242.620209 778.514587,245.178818 779.106995,248.675659  M747.988525,84.055176   C747.978333,82.890472 747.669067,81.629097 748.008972,80.577515   C749.618774,75.596504 751.001099,70.467140 753.351807,65.841553   C754.161011,64.249199 757.705811,63.032185 759.698547,63.379322   C761.275208,63.654003 762.573608,66.478424 763.640869,68.370613   C764.289917,69.521225 764.265503,71.051720 764.543579,72.411583   C764.887329,72.437706 765.231140,72.463829 765.574890,72.489952   C766.422974,69.300026 767.271057,66.110100 768.032471,63.246174   C765.791199,62.854851 764.176575,62.438927 762.540161,62.318245   C760.007874,62.131493 757.225037,61.445190 754.963501,62.205425   C747.780701,64.619957 742.267944,74.155052 743.151428,81.695747   C743.806885,87.290405 747.666260,91.084900 752.499817,90.887054   C758.727722,90.632133 763.561340,86.185600 763.924438,79.766647   C761.640015,82.431145 759.859558,84.912636 757.676331,86.965744   C753.743347,90.664398 750.429138,89.855423 747.988525,84.055176  M652.777832,189.112778   C654.377075,185.759384 656.213318,182.684326 661.136963,182.269089   C660.891357,184.153320 660.839600,185.758575 660.455383,187.279877   C659.114746,192.588013 657.871277,197.937622 656.147278,203.124008   C655.413635,205.331299 653.582947,207.173981 652.479736,208.837189   C655.082275,208.837189 658.950867,208.837189 662.287109,208.837189   C661.567627,207.725616 659.961914,206.351501 660.186646,205.418076   C662.069458,197.598572 664.288452,189.860001 666.387451,182.165329   C672.728088,182.312912 671.509827,187.214737 673.597229,190.398605   C674.110291,187.512192 674.623352,184.625778 675.272644,180.972809   C669.466919,180.972809 664.527100,180.965240 659.587219,180.974625   C652.590820,180.987946 650.312378,183.824692 651.352966,191.512665   C651.795654,190.794357 652.130493,190.250961 652.777832,189.112778  M655.928040,242.771362   C654.254639,249.209641 652.749878,255.699234 650.814941,262.057922   C650.151794,264.237061 648.411316,266.088379 647.377563,267.745544   C650.127380,267.745544 653.923401,267.745544 656.853821,267.745544   C656.207397,266.351990 654.848816,264.846985 655.111694,263.720428   C655.872864,260.458923 657.285889,257.349609 658.443115,254.180573   C659.924622,254.851730 661.588013,255.297592 662.812683,256.286652   C663.449158,256.800659 663.310547,258.274323 663.522034,259.314484   C663.866882,259.331818 664.211670,259.349152 664.556519,259.366486   C665.103210,256.818176 665.649841,254.269897 666.249817,251.473358   C663.233032,252.116867 660.943481,252.605270 658.653870,253.093658   C658.406555,252.748535 658.159180,252.403412 657.911865,252.058289   C660.384155,248.662918 657.559082,242.727829 663.479431,241.174500   C665.528931,240.636780 668.554749,240.876450 670.078918,242.088547   C671.679199,243.361221 672.013916,246.225418 673.486267,249.822144   C674.182983,245.871552 674.636169,243.301590 675.167664,240.287872   C667.610779,240.287872 660.916687,240.287872 653.963867,240.287872   C654.722717,240.993759 655.292297,241.523636 655.928040,242.771362  M761.205627,204.818848   C757.839294,208.476120 753.718872,208.471634 748.527344,207.285126   C751.131653,198.250183 751.523499,188.794922 756.731201,181.082352   C754.552979,181.082352 751.410095,181.082352 748.192322,181.082352   C750.988770,184.786896 745.093445,206.092880 740.380066,209.018188   C745.922546,209.018188 751.242615,209.016586 756.562683,209.018570   C763.814087,209.021271 765.846497,206.685242 765.219482,198.606110   C763.907532,200.664474 762.773682,202.443283 761.205627,204.818848  M713.030090,204.357361   C711.927185,205.926880 710.824341,207.496384 709.751892,209.022583   C714.409729,209.022583 719.560181,209.020798 724.710632,209.023026   C732.282043,209.026306 734.493347,206.582108 733.681946,198.142883   C730.783020,206.278992 725.675110,209.930984 716.858154,207.175400   C718.595032,200.482071 720.089966,194.030487 722.000854,187.704559   C722.742981,185.247879 724.424683,183.075043 725.502991,181.094910   C723.207581,181.094910 719.751648,181.094910 716.147095,181.094910   C719.081909,183.413986 718.966980,184.238129 713.030090,204.357361  M694.011230,61.982315   C693.067444,61.982315 692.123657,61.982315 690.918213,61.982315   C694.006897,65.873238 688.122009,86.849785 683.490601,89.826393   C686.865540,89.826393 690.270813,89.826393 693.965820,89.826393   C690.157715,87.228439 695.988098,64.688873 701.243530,61.972340   C698.772766,61.972340 696.788391,61.972340 694.011230,61.982315  M700.584534,181.837280   C700.639954,181.680313 700.739502,181.521667 700.733582,181.367065   C700.730164,181.279922 700.553284,181.126877 700.454102,181.126465   C697.365479,181.113602 694.276733,181.115936 691.009277,181.115936   C693.637756,184.449554 688.126221,205.797409 683.916748,208.834045   C687.330078,208.834045 690.517212,208.834045 692.953308,208.834045   C692.533813,207.648590 691.515442,206.289276 691.765015,205.228210   C693.324036,198.599823 695.058899,192.006027 697.004211,185.480850   C697.400208,184.152664 698.941772,183.166000 700.584534,181.837280  M755.179504,147.816635   C755.037842,145.891205 754.421997,143.855469 754.839600,142.060104   C756.350708,135.563980 758.209106,129.148605 760.244263,121.553818   C756.013916,124.333244 752.970764,126.332649 749.287415,128.752716   C751.194275,128.621948 752.369751,128.541351 754.465637,128.397614   C750.648743,135.445877 752.626953,144.055420 746.113525,148.768753   C749.084351,148.768753 752.875427,148.768753 756.666504,148.768768   C756.557922,148.538605 756.483032,148.281006 756.327209,148.089203   C756.242493,147.984924 756.020081,147.992477 755.179504,147.816635  M667.850952,86.947334   C670.220337,80.768974 669.539734,77.879250 664.737122,75.054909   C660.527405,72.579216 655.776001,70.667511 656.668579,63.723858   C652.217712,69.003174 653.279358,73.765335 658.505188,77.145584   C662.169128,79.515511 667.564392,80.861115 665.592957,87.255692   C666.174377,87.326836 666.755798,87.397980 667.850952,86.947334  M649.107971,85.427376   C648.837891,86.666176 648.567749,87.904976 648.349915,88.904198   C651.628479,89.319687 654.520752,89.686218 656.883240,89.985611   C655.075989,86.077995 653.408936,82.473450 651.462891,78.265633   C650.701294,80.566200 650.017273,82.632401 649.107971,85.427376  M671.776367,64.608322   C671.672119,63.984257 671.633240,62.836895 671.453918,62.814514   C668.702271,62.471062 665.932312,62.274220 663.707336,62.088421   C665.610718,65.241653 667.465088,68.313690 669.740662,72.083481   C670.450256,69.530121 671.030518,67.442039 671.776367,64.608322  z"/>
<path fill="#C89194" opacity="1.000000" stroke="none" d=" M502.141907,181.172806   C488.557465,192.561203 472.526337,195.840469 455.868286,196.819733   C447.066620,197.337158 438.207764,197.052200 429.380035,196.870453   C425.918549,196.799179 424.722443,197.916580 424.759277,201.436569   C424.912659,216.098816 424.910461,230.764496 424.759033,245.426788   C424.722351,248.977600 426.005859,250.062286 429.429535,249.965271   C436.422577,249.767120 443.432373,250.095261 450.420990,249.830307   C454.320770,249.682465 455.258942,251.261215 455.148743,254.829086   C455.050262,258.018585 454.954742,260.091217 450.716522,260.062225   C425.222565,259.887604 399.726624,259.914490 374.232086,260.033112   C370.734039,260.049408 369.977936,258.585663 370.112579,255.538513   C370.243805,252.567566 370.014313,249.695221 374.360291,249.876541   C378.019867,250.029205 381.709198,249.676544 385.352112,249.965973   C389.689758,250.310593 391.220001,248.759140 391.132416,244.310776   C390.883240,231.651428 391.043701,218.984024 391.043671,206.319778   C391.043640,179.824860 390.953583,153.329483 391.084473,126.835205   C391.145264,114.529037 391.465729,102.217384 392.015320,89.923721   C392.236145,84.983086 390.391724,83.370262 385.673279,83.768829   C382.033661,84.076271 378.336578,83.650246 374.683350,83.863724   C370.617249,84.101326 370.030914,81.872299 370.100067,78.557175   C370.164490,75.470299 370.183075,73.033333 374.458893,73.052818   C402.119568,73.178947 429.800446,72.545815 457.432404,73.452324   C468.197571,73.805489 479.233856,76.394257 489.479828,79.908813   C511.436340,87.440338 521.031311,104.809464 522.827942,126.934334   C523.982605,141.153687 521.641541,154.935684 513.787231,167.146210   C510.585419,172.123901 506.238281,176.364868 502.141907,181.172806  M424.136230,106.500160   C424.135406,132.125488 424.218994,157.751358 424.052063,183.375610   C424.023682,187.728745 425.332672,189.299911 429.752808,189.080521   C436.226440,188.759247 442.732605,189.156174 449.216309,188.960999   C462.314453,188.566742 472.784698,183.110764 479.209625,171.526840   C490.605682,150.980057 490.955078,129.140549 484.285736,107.304214   C480.944305,96.363899 472.905060,87.792740 461.356873,85.622169   C450.219116,83.528748 438.622498,83.775993 427.214142,83.402832   C426.242279,83.371040 424.391266,86.364571 424.285126,88.037476   C423.917053,93.838203 424.139069,99.676376 424.136230,106.500160  z"/>
<path fill="#C89295" opacity="1.000000" stroke="none" d=" M281.955444,162.935043   C286.089111,162.708374 289.786621,162.807587 293.363251,162.197739   C307.433624,159.798645 311.607117,154.818054 311.914734,140.361298   C311.978516,137.364166 311.778168,134.908936 316.178955,134.863327   C320.613678,134.817383 322.276245,135.876724 322.198730,140.677429   C321.916321,158.165054 322.015839,175.660629 322.151917,193.151810   C322.179535,196.706284 321.285370,198.304855 317.409973,198.150558   C314.036499,198.016235 311.954773,197.882172 311.827881,193.439606   C311.410950,178.844849 305.873383,173.733688 290.016327,173.073410   C281.867157,172.734085 273.691772,173.073242 265.530212,172.959625   C262.391815,172.915939 261.008820,174.033295 261.019409,177.312805   C261.092773,199.969162 261.106476,222.626053 261.016815,245.282288   C261.001007,249.281769 262.993073,249.886581 266.387665,249.779205   C276.196808,249.468948 286.014282,249.429764 295.827759,249.245758   C300.797363,249.152603 301.070312,252.198318 301.097412,256.140259   C301.126801,260.416473 298.543457,259.984131 295.830109,259.983032   C267.009583,259.971466 238.188934,259.940247 209.368637,260.025513   C205.872589,260.035858 203.742447,259.654327 203.897324,255.245209   C204.040558,251.167404 204.656677,249.131165 209.518127,249.646515   C214.593185,250.184464 219.795410,249.781921 224.916443,249.424255   C226.037430,249.345963 227.430359,247.906570 228.001938,246.749969   C228.533600,245.674179 228.147507,244.139633 228.147522,242.807053   C228.148453,191.996292 228.147919,141.185532 228.145706,90.374763   C228.145432,83.845695 228.140747,83.843384 221.578262,83.834679   C217.080261,83.828720 212.569061,83.614731 208.087967,83.889130   C203.604004,84.163704 203.933609,81.366089 203.916809,78.409607   C203.899719,75.400269 203.726395,72.958130 208.157059,73.019096   C224.146927,73.239098 240.141663,73.107109 256.134552,73.106918   C287.953766,73.106537 319.773285,73.172783 351.591766,73.021408   C355.682220,73.001945 357.063080,74.089592 356.993134,78.314339   C356.756042,92.637352 356.845734,106.967201 356.953033,121.293381   C356.976837,124.469818 356.458191,126.354164 352.621399,126.104973   C349.468842,125.900230 347.071167,126.264671 346.803070,121.618828   C346.451691,115.530327 345.209076,109.407890 343.627045,103.493378   C340.214050,90.733421 330.642151,84.958786 317.970581,84.248283   C300.530731,83.270424 283.000610,83.933205 265.509857,83.801964   C262.336243,83.778152 261.019958,84.982529 261.028717,88.210083   C261.091858,111.532852 261.074646,134.855896 261.045288,158.178818   C261.041046,161.570633 262.678009,162.986145 265.971863,162.947266   C271.135132,162.886322 276.299713,162.933655 281.955444,162.935043  z"/>
<path fill="#C89295" opacity="1.000000" stroke="none" d=" M211.000000,45.067726   C324.463043,45.066788 437.426056,45.065685 550.389099,45.064957   C556.923035,45.064915 556.925964,45.066326 556.929077,51.498112   C556.932739,58.995655 556.838440,66.494904 556.976990,73.989899   C557.031372,76.930321 556.142578,78.459549 553.012878,78.085625   C552.684448,78.046379 552.347046,78.078911 552.013855,78.083519   C540.197327,78.246925 539.984558,78.243538 540.168335,67.003540   C540.240723,62.575951 538.511414,61.856525 534.611633,61.866764   C490.626343,61.982307 446.640594,61.943642 402.654999,61.943634   C333.177734,61.943623 263.700287,62.008041 194.223572,61.808315   C188.927246,61.793091 187.805893,63.424023 187.968796,68.299370   C188.296539,78.109467 188.043213,78.117928 178.349854,78.076111   C171.922577,78.048378 171.917831,78.048378 171.914108,71.474419   C171.910049,64.310097 172.147644,57.135441 171.828491,49.985432   C171.644608,45.865711 173.204620,44.921867 177.012802,44.993240   C188.171753,45.202381 199.337143,45.067661 211.000000,45.067726  z"/>
<path fill="#C89295" opacity="1.000000" stroke="none" d=" M531.000000,284.931213   C413.374054,284.931091 296.248138,284.931396 179.122192,284.930420   C171.914581,284.930359 171.914459,284.925751 171.915955,277.622559   C171.917419,270.458374 172.050095,263.290802 171.862762,256.131561   C171.775711,252.804306 173.051727,251.913406 176.237793,251.857590   C187.921951,251.652893 188.097168,251.548874 187.978729,263.094452   C187.937454,267.116516 189.242279,268.142517 193.116257,268.139526   C307.076569,268.051514 421.036957,268.051910 534.997253,268.138824   C538.855713,268.141754 540.196167,267.139984 540.156128,263.101746   C540.044739,251.852661 540.231384,252.055191 551.401794,251.816086   C555.784729,251.722260 557.239746,252.942093 557.030762,257.410004   C556.673096,265.057281 556.791565,272.737183 556.997375,280.395660   C557.089661,283.828308 556.053589,285.125641 552.490112,285.005707   C545.500488,284.770416 538.497498,284.933228 531.000000,284.931213  z"/>
<path fill="#EDD6D7" opacity="1.000000" stroke="none" d=" M689.012268,241.051208   C690.406372,236.538879 696.086548,234.365540 699.780579,236.948608   C701.211426,237.949158 702.602783,239.006195 704.205811,240.179245   C703.845337,240.908524 703.434692,241.739273 702.689636,242.685242   C701.249573,242.178558 700.143860,241.556686 698.028748,240.367111   C701.556824,248.395035 699.406799,254.695847 696.966309,261.280914   C696.284485,262.240356 695.936096,263.175873 695.276611,263.526672   C692.962524,264.757568 690.455627,266.730865 688.194336,266.525330   C686.919006,266.409393 685.285400,262.659149 685.026672,260.406677   C684.346619,254.484634 685.826233,248.933380 689.420593,243.994598   C689.840271,243.417938 689.174744,242.051498 689.012268,241.051208  z"/>
<path fill="#C59DA1" opacity="1.000000" stroke="none" d=" M736.730469,65.916679   C735.385986,70.407265 734.157776,74.537247 732.951660,78.673683   C731.769592,82.727753 730.610046,86.788399 729.440674,90.846176   C728.853760,90.919815 728.266785,90.993446 727.679810,91.067078   C724.900269,83.883415 722.120728,76.699760 719.341187,69.516098   C717.298279,76.259354 712.556152,82.267075 715.382996,89.751511   C713.018188,89.751511 710.149597,89.751511 707.391052,89.751511   C713.054565,85.501122 718.282959,64.851303 714.226990,62.381943   C721.506104,61.434261 721.637085,61.577015 723.866882,68.598305   C725.161377,72.674606 726.685791,76.677895 728.195251,80.965256   C732.997070,75.772194 734.600586,65.089874 730.957642,62.240383   C734.446411,62.240383 737.603882,62.240383 740.747437,62.240383   C739.446594,63.349781 738.151489,64.454338 736.730469,65.916679  z"/>
<path fill="#C4999D" opacity="1.000000" stroke="none" d=" M717.408752,244.503372   C717.012573,242.771027 716.484741,241.398041 715.941528,239.985138   C719.307068,239.985138 723.357849,239.513535 727.226135,240.150513   C729.815918,240.576981 733.560303,242.107010 734.192810,244.007111   C734.817017,245.882156 732.258606,248.890915 730.908264,251.296661   C730.572266,251.895264 729.510254,252.086349 729.666077,252.005402   C729.917175,255.947449 729.992065,259.424316 730.428894,262.855072   C730.604919,264.237457 731.573730,265.518921 732.645630,267.859222   C730.444641,267.643585 728.069946,267.982941 726.456665,267.031372   C725.536255,266.488464 725.644897,263.835999 725.680359,262.141602   C725.714661,260.507690 726.674988,258.820709 726.443542,257.274567   C726.223694,255.806030 725.242737,253.620392 724.142151,253.297256   C722.181763,252.721680 719.433655,252.071762 718.713379,255.633148   C718.026306,259.029816 716.988708,262.355560 716.014709,266.056488   C717.385986,266.615967 718.573242,267.100372 720.552673,267.907959   C715.866882,267.907959 712.067139,267.907959 709.098450,267.907959   C710.123108,266.297211 711.737366,264.607178 712.368774,262.606903   C714.214905,256.758453 715.669250,250.786362 717.408752,244.503372  M720.161194,250.502014   C723.729919,252.773605 728.273438,251.964981 729.528076,248.474152   C730.449829,245.909348 731.378296,242.583832 727.688171,241.278427   C724.654846,240.205399 722.122925,241.121262 721.509094,244.901749   C721.244385,246.532028 720.666016,248.111343 720.161194,250.502014  z"/>
<path fill="#C4999D" opacity="1.000000" stroke="none" d=" M850.154541,253.623840   C846.012939,252.151474 843.828247,253.305557 843.202942,257.446564   C842.760559,260.376373 841.887268,263.241119 841.161499,266.325226   C842.551025,266.742035 843.703003,267.087585 844.855042,267.433136   C844.818665,267.588440 844.782227,267.743744 844.745850,267.899048   C841.269226,267.899048 837.792664,267.899048 834.227600,267.899048   C838.246460,265.069336 843.682190,243.452225 840.917297,239.987244   C844.963074,239.987244 848.720520,240.099228 852.468018,239.953812   C855.803528,239.824341 858.626831,240.733032 859.635010,244.057495   C860.721252,247.639938 858.791931,250.097351 855.592041,251.664154   C855.157043,251.877136 854.795837,252.240891 854.757996,252.269043   C855.186340,256.376160 855.586487,260.212952 856.055786,264.713318   C856.651550,264.805023 857.992310,265.011353 860.671021,265.423584   C858.160767,266.591766 856.609497,267.916840 855.153564,267.819275   C853.735657,267.724274 851.650696,266.430634 851.236084,265.199432   C850.652222,263.465424 851.517151,261.295807 851.429138,259.327362   C851.347168,257.491608 850.829346,255.675339 850.154541,253.623840  M853.653748,241.497513   C847.380310,240.531204 845.596985,242.741180 845.648926,252.850082   C848.756653,251.672638 851.907959,251.220047 853.993103,249.485733   C856.195862,247.653625 856.569336,244.584595 853.653748,241.497513  z"/>
<path fill="#C29A9E" opacity="1.000000" stroke="none" d=" M779.395996,87.283371   C785.899353,91.204216 789.572693,89.478935 796.159607,79.774391   C796.428284,88.086731 794.693420,90.012703 786.925476,90.017021   C781.771484,90.019890 776.617554,90.017555 771.206909,90.017555   C776.113403,86.832932 781.902344,66.137360 779.242554,62.189560   C785.838806,62.189560 792.461975,62.189560 800.039917,62.189560   C799.550171,65.123680 799.120483,67.697998 798.690796,70.272324   C798.231262,70.632896 797.771667,70.993469 797.312073,71.354034   C797.577332,64.080627 793.798767,61.784683 788.321899,63.175983   C782.505432,64.653557 785.156250,70.601295 782.513062,74.172577   C788.162720,76.114403 789.674500,72.433525 792.440308,69.745331   C791.443848,73.622452 790.447327,77.499573 789.450867,81.376694   C789.150452,81.374329 788.850037,81.371971 788.549622,81.369614   C788.258850,80.361084 788.249573,79.088898 787.610474,78.406631   C786.683594,77.417122 785.352966,76.431343 784.093262,76.278442   C783.415039,76.196114 782.173645,77.724632 781.800354,78.749931   C780.836548,81.397232 780.214172,84.168884 779.395996,87.283371  z"/>
<path fill="#C29A9E" opacity="1.000000" stroke="none" d=" M809.935181,251.874817   C810.685303,249.073837 811.583740,246.702911 811.921875,244.254593   C812.099182,242.970413 811.294556,241.550613 810.944946,240.235321   C817.197449,240.235321 824.124939,240.235321 831.693237,240.235321   C831.053833,243.240677 830.495239,245.866180 829.936646,248.491684   C829.540405,248.488190 829.144104,248.484680 828.747864,248.481186   C828.523132,247.323456 828.682251,245.794907 827.995239,245.083725   C826.477173,243.512192 824.703125,241.702744 822.721191,241.184448   C820.102661,240.499695 816.738403,240.331863 816.317993,244.470917   C816.039917,247.208618 816.170593,249.987854 816.118286,252.748505   C818.577026,251.339935 821.035767,249.931351 823.857971,248.314529   C822.869934,251.774750 821.772583,255.617889 820.675171,259.461029   C820.316162,259.429932 819.957214,259.398865 819.598206,259.367767   C819.403748,258.327972 819.447632,257.150360 818.948425,256.286713   C818.438965,255.405334 817.380981,254.246994 816.590393,254.267334   C815.519714,254.294891 813.855957,255.099045 813.529724,255.973984   C812.332520,259.184143 811.583374,262.561432 810.624146,266.025574   C819.845642,269.162872 824.556824,264.780914 827.544556,257.027618   C828.083008,265.793060 826.021362,268.023071 818.176392,268.024414   C813.188171,268.025269 808.200012,268.024597 802.849670,268.024597   C809.249023,264.264435 807.415283,257.356720 809.935181,251.874817  z"/>
<path fill="#C29A9E" opacity="1.000000" stroke="none" d=" M750.992859,255.045471   C749.812439,258.869324 748.853699,262.360382 747.806824,266.172546   C753.482788,267.785156 758.251587,267.424194 762.078918,262.732391   C763.860229,267.117310 763.451843,267.915283 759.438416,267.987061   C753.118713,268.100098 746.795532,268.017120 740.255127,268.017120   C745.146423,264.667084 750.627380,242.619598 746.711243,239.982590   C750.873413,239.982590 754.454468,239.982590 758.035583,239.982590   C761.482910,239.982590 764.930237,239.982590 768.858582,239.982590   C768.238281,243.374954 767.753906,246.023865 767.269531,248.672775   C766.934082,248.702896 766.598572,248.733002 766.263123,248.763123   C765.374451,246.512115 765.091858,243.379517 763.437622,242.242310   C761.542175,240.939301 756.997559,240.247833 756.121521,241.329575   C753.765076,244.239365 752.749329,248.234879 751.037048,252.177551   C756.468018,253.700790 758.394348,251.422546 759.501221,247.740128   C759.942322,247.914505 760.383423,248.088867 760.824524,248.263245   C759.871948,252.018066 758.919373,255.772888 757.966736,259.527710   C757.553467,259.571655 757.140198,259.615601 756.726929,259.659515   C755.902771,256.728729 756.171265,252.415665 750.992859,255.045471  z"/>
<path fill="#C59DA1" opacity="1.000000" stroke="none" d=" M696.984192,121.984116   C698.198425,122.868019 699.952393,123.486710 700.538330,124.679298   C704.083740,131.895126 700.541138,144.009125 693.872070,148.244980   C688.919312,151.390701 683.698059,149.860352 682.526550,144.387253   C680.936096,136.957367 681.714111,129.581650 687.727966,124.245392   C689.842834,122.368767 693.562805,122.301064 696.407715,121.734528   C694.568298,122.939056 691.798401,123.452133 691.355713,124.755600   C689.198853,131.106171 687.544922,137.640518 686.033752,144.183884   C685.798767,145.201126 687.286255,147.657242 687.864197,147.621475   C689.450500,147.523254 691.792725,146.871170 692.393677,145.699051   C696.192139,138.290024 699.417969,130.646454 696.984192,121.984116  z"/>
<path fill="#C59DA1" opacity="1.000000" stroke="none" d=" M651.766602,147.794769   C649.129700,147.931396 648.132996,146.897293 649.436279,145.025635   C651.263062,142.402145 653.777588,140.203110 656.220764,138.078812   C658.581665,136.026047 661.765991,134.705139 663.575439,132.300369   C665.059753,130.327805 665.339844,127.255592 665.524292,124.626633   C665.574097,123.918365 663.017517,122.144005 662.200134,122.426956   C659.930542,123.212601 657.946594,124.823357 655.362854,126.406464   C656.700562,127.426651 657.122681,127.650490 657.412292,127.988068   C658.253601,128.968643 659.041809,129.994858 659.850830,131.003174   C658.864075,131.645294 657.639587,133.000183 656.944275,132.768326   C655.801331,132.387207 654.317017,131.065506 654.178345,129.985992   C653.650757,125.880356 655.589417,122.902245 659.479126,121.427719   C663.626709,119.855446 668.370544,121.309372 670.072327,124.506248   C671.891663,127.923882 670.875671,132.375687 667.298584,134.559265   C663.764160,136.716827 659.920593,138.365570 656.230286,140.271698   C655.368103,140.716995 654.577209,141.300293 653.685242,141.863220   C659.732910,146.249542 662.203186,146.219025 666.344421,141.837158   C666.734741,142.095673 667.125122,142.354202 667.515442,142.612717   C665.954773,144.740585 664.815430,147.508881 662.749207,148.868469   C657.826172,152.107788 655.714478,146.782074 652.277527,144.141647   C652.092468,145.628693 651.979004,146.540375 651.766602,147.794769  z"/>
<path fill="#C59DA1" opacity="1.000000" stroke="none" d=" M779.106201,248.206543   C778.514587,245.178818 777.923767,242.620209 777.344238,240.110596   C779.767639,240.110596 783.222717,240.110596 786.129822,240.110596   C781.542175,245.673187 784.915649,252.136520 783.709167,258.743805   C790.186707,253.679199 794.664917,244.455841 792.940918,240.234863   C796.254944,240.234863 799.474915,240.234863 802.618530,240.234863   C792.090027,247.085190 789.185364,260.249420 779.106995,268.312408   C779.106995,261.766815 779.106995,255.221237 779.106201,248.206543  z"/>
<path fill="#C59DA1" opacity="1.000000" stroke="none" d=" M748.038635,84.480270   C750.429138,89.855423 753.743347,90.664398 757.676331,86.965744   C759.859558,84.912636 761.640015,82.431145 763.924438,79.766647   C763.561340,86.185600 758.727722,90.632133 752.499817,90.887054   C747.666260,91.084900 743.806885,87.290405 743.151428,81.695747   C742.267944,74.155052 747.780701,64.619957 754.963501,62.205425   C757.225037,61.445190 760.007874,62.131493 762.540161,62.318245   C764.176575,62.438927 765.791199,62.854851 768.032471,63.246174   C767.271057,66.110100 766.422974,69.300026 765.574890,72.489952   C765.231140,72.463829 764.887329,72.437706 764.543579,72.411583   C764.265503,71.051720 764.289917,69.521225 763.640869,68.370613   C762.573608,66.478424 761.275208,63.654003 759.698547,63.379322   C757.705811,63.032185 754.161011,64.249199 753.351807,65.841553   C751.001099,70.467140 749.618774,75.596504 748.008972,80.577515   C747.669067,81.629097 747.978333,82.890472 748.038635,84.480270  z"/>
<path fill="#C4999D" opacity="1.000000" stroke="none" d=" M652.621582,189.410172   C652.130493,190.250961 651.795654,190.794357 651.352966,191.512665   C650.312378,183.824692 652.590820,180.987946 659.587219,180.974625   C664.527100,180.965240 669.466919,180.972809 675.272644,180.972809   C674.623352,184.625778 674.110291,187.512192 673.597229,190.398605   C671.509827,187.214737 672.728088,182.312912 666.387451,182.165329   C664.288452,189.860001 662.069458,197.598572 660.186646,205.418076   C659.961914,206.351501 661.567627,207.725616 662.287109,208.837189   C658.950867,208.837189 655.082275,208.837189 652.479736,208.837189   C653.582947,207.173981 655.413635,205.331299 656.147278,203.124008   C657.871277,197.937622 659.114746,192.588013 660.455383,187.279877   C660.839600,185.758575 660.891357,184.153320 661.136963,182.269089   C656.213318,182.684326 654.377075,185.759384 652.621582,189.410172  z"/>
<path fill="#C29A9E" opacity="1.000000" stroke="none" d=" M655.895020,242.412445   C655.292297,241.523636 654.722717,240.993759 653.963867,240.287872   C660.916687,240.287872 667.610779,240.287872 675.167664,240.287872   C674.636169,243.301590 674.182983,245.871552 673.486267,249.822144   C672.013916,246.225418 671.679199,243.361221 670.078918,242.088547   C668.554749,240.876450 665.528931,240.636780 663.479431,241.174500   C657.559082,242.727829 660.384155,248.662918 657.911865,252.058289   C658.159180,252.403412 658.406555,252.748535 658.653870,253.093658   C660.943481,252.605270 663.233032,252.116867 666.249817,251.473358   C665.649841,254.269897 665.103210,256.818176 664.556519,259.366486   C664.211670,259.349152 663.866882,259.331818 663.522034,259.314484   C663.310547,258.274323 663.449158,256.800659 662.812683,256.286652   C661.588013,255.297592 659.924622,254.851730 658.443115,254.180573   C657.285889,257.349609 655.872864,260.458923 655.111694,263.720428   C654.848816,264.846985 656.207397,266.351990 656.853821,267.745544   C653.923401,267.745544 650.127380,267.745544 647.377563,267.745544   C648.411316,266.088379 650.151794,264.237061 650.814941,262.057922   C652.749878,255.699234 654.254639,249.209641 655.895020,242.412445  z"/>
<path fill="#C4999D" opacity="1.000000" stroke="none" d=" M761.422729,204.520462   C762.773682,202.443283 763.907532,200.664474 765.219482,198.606110   C765.846497,206.685242 763.814087,209.021271 756.562683,209.018570   C751.242615,209.016586 745.922546,209.018188 740.380066,209.018188   C745.093445,206.092880 750.988770,184.786896 748.192322,181.082352   C751.410095,181.082352 754.552979,181.082352 756.731201,181.082352   C751.523499,188.794922 751.131653,198.250183 748.527344,207.285126   C753.718872,208.471634 757.839294,208.476120 761.422729,204.520462  z"/>
<path fill="#C4999D" opacity="1.000000" stroke="none" d=" M713.103638,203.966934   C718.966980,184.238129 719.081909,183.413986 716.147095,181.094910   C719.751648,181.094910 723.207581,181.094910 725.502991,181.094910   C724.424683,183.075043 722.742981,185.247879 722.000854,187.704559   C720.089966,194.030487 718.595032,200.482071 716.858154,207.175400   C725.675110,209.930984 730.783020,206.278992 733.681946,198.142883   C734.493347,206.582108 732.282043,209.026306 724.710632,209.023026   C719.560181,209.020798 714.409729,209.022583 709.751892,209.022583   C710.824341,207.496384 711.927185,205.926880 713.103638,203.966934  z"/>
<path fill="#C59DA1" opacity="1.000000" stroke="none" d=" M714.750977,146.228622   C714.078796,147.107178 713.406555,147.985733 712.734375,148.864273   C712.303467,147.796539 711.197327,146.266113 711.557495,145.740402   C713.198975,143.344620 715.036316,140.984436 717.211731,139.077545   C720.050842,136.588989 723.867798,135.005920 726.123901,132.136780   C727.611633,130.244781 727.488342,126.725510 727.158081,124.049423   C727.086609,123.470154 723.040344,123.381416 720.419556,123.040070   C720.014221,123.013397 719.970947,122.973305 719.970947,122.973305   C723.915344,120.057243 729.328735,120.371109 731.898804,123.664894   C734.405457,126.877373 733.278198,132.200546 729.121826,134.792709   C725.000610,137.362946 720.586792,139.464081 716.301270,141.770950   C716.345947,142.325851 716.390564,142.880753 716.435242,143.435654   C719.945435,144.047806 723.455627,144.659958 727.631836,145.388260   C727.391418,145.992386 727.212585,147.981415 726.280090,148.440933   C724.688232,149.225418 722.475159,149.591019 720.797974,149.130661   C719.019287,148.642426 717.560852,146.986969 715.482300,145.646149   C714.856201,145.443085 714.710510,145.435135 714.564758,145.427170   C714.626831,145.694321 714.688904,145.961472 714.750977,146.228622  z"/>
<path fill="#C59DA1" opacity="1.000000" stroke="none" d=" M688.819214,241.296448   C689.174744,242.051498 689.840271,243.417938 689.420593,243.994598   C685.826233,248.933380 684.346619,254.484634 685.026672,260.406677   C685.285400,262.659149 686.919006,266.409393 688.194336,266.525330   C690.455627,266.730865 692.962524,264.757568 695.276611,263.526672   C695.936096,263.175873 696.284485,262.240356 697.355591,261.286682   C698.725281,261.040924 699.514771,261.081512 700.198975,261.455627   C697.252991,266.341797 693.217590,269.092499 687.790894,268.603333   C682.219482,268.101105 681.075989,263.439240 679.976562,258.999786   C680.300476,256.620270 680.624390,254.240753 681.231812,251.236740   C681.713928,249.771988 681.912537,248.931747 682.111145,248.091507   C682.111145,248.091507 682.104614,248.071182 682.375244,247.922882   C683.173096,246.879456 683.700256,245.984329 684.227417,245.089203   C685.693665,243.906708 687.159973,242.724197 688.819214,241.296448  z"/>
<path fill="#C4999D" opacity="1.000000" stroke="none" d=" M694.407654,61.977325   C696.788391,61.972340 698.772766,61.972340 701.243530,61.972340   C695.988098,64.688873 690.157715,87.228439 693.965820,89.826393   C690.270813,89.826393 686.865540,89.826393 683.490601,89.826393   C688.122009,86.849785 694.006897,65.873238 690.918213,61.982315   C692.123657,61.982315 693.067444,61.982315 694.407654,61.977325  z"/>
<path fill="#C4999D" opacity="1.000000" stroke="none" d=" M700.269897,181.929596   C698.941772,183.166000 697.400208,184.152664 697.004211,185.480850   C695.058899,192.006027 693.324036,198.599823 691.765015,205.228210   C691.515442,206.289276 692.533813,207.648590 692.953308,208.834045   C690.517212,208.834045 687.330078,208.834045 683.916748,208.834045   C688.126221,205.797409 693.637756,184.449554 691.009277,181.115936   C694.276733,181.115936 697.365479,181.113602 700.454102,181.126465   C700.553284,181.126877 700.730164,181.279922 700.733582,181.367065   C700.739502,181.521667 700.639954,181.680313 700.269897,181.929596  z"/>
<path fill="#C4999D" opacity="1.000000" stroke="none" d=" M755.519653,147.883118   C756.020081,147.992477 756.242493,147.984924 756.327209,148.089203   C756.483032,148.281006 756.557922,148.538605 756.666504,148.768768   C752.875427,148.768753 749.084351,148.768753 746.113525,148.768753   C752.626953,144.055420 750.648743,135.445877 754.465637,128.397614   C752.369751,128.541351 751.194275,128.621948 749.287415,128.752716   C752.970764,126.332649 756.013916,124.333244 760.244263,121.553818   C758.209106,129.148605 756.350708,135.563980 754.839600,142.060104   C754.421997,143.855469 755.037842,145.891205 755.519653,147.883118  z"/>
<path fill="#C4999D" opacity="1.000000" stroke="none" d=" M667.594116,87.208229   C666.755798,87.397980 666.174377,87.326836 665.592957,87.255692   C667.564392,80.861115 662.169128,79.515511 658.505188,77.145584   C653.279358,73.765335 652.217712,69.003174 656.668579,63.723858   C655.776001,70.667511 660.527405,72.579216 664.737122,75.054909   C669.539734,77.879250 670.220337,80.768974 667.594116,87.208229  z"/>
<path fill="#EDD6D7" opacity="1.000000" stroke="none" d=" M679.630981,259.088013   C681.075989,263.439240 682.219482,268.101105 687.790894,268.603333   C693.217590,269.092499 697.252991,266.341797 700.442078,261.265808   C701.789734,259.382904 702.788879,258.023315 703.788025,256.663696   C704.183960,262.780304 700.756042,267.887177 694.967834,269.834473   C694.047119,270.144226 692.841736,270.271240 692.295105,270.924133   C688.093567,275.941864 684.381409,271.114380 682.128723,269.324005   C679.691345,267.386780 676.236511,263.631989 679.630981,259.088013  z"/>
<path fill="#C4999D" opacity="1.000000" stroke="none" d=" M703.806763,256.277954   C702.788879,258.023315 701.789734,259.382904 700.547485,260.932312   C699.514771,261.081512 698.725281,261.040924 697.546387,260.994568   C699.406799,254.695847 701.556824,248.395035 698.028748,240.367111   C700.143860,241.556686 701.249573,242.178558 702.630005,242.998993   C703.211670,247.429123 703.518555,251.660690 703.806763,256.277954  z"/>
<path fill="#C59DA1" opacity="1.000000" stroke="none" d=" M649.220581,85.062988   C650.017273,82.632401 650.701294,80.566200 651.462891,78.265633   C653.408936,82.473450 655.075989,86.077995 656.883240,89.985611   C654.520752,89.686218 651.628479,89.319687 648.349915,88.904198   C648.567749,87.904976 648.837891,86.666176 649.220581,85.062988  z"/>
<path fill="#C59DA1" opacity="1.000000" stroke="none" d=" M671.693604,64.981140   C671.030518,67.442039 670.450256,69.530121 669.740662,72.083481   C667.465088,68.313690 665.610718,65.241653 663.707336,62.088421   C665.932312,62.274220 668.702271,62.471062 671.453918,62.814514   C671.633240,62.836895 671.672119,63.984257 671.693604,64.981140  z"/>
<path fill="#C59DA1" opacity="1.000000" stroke="none" d=" M720.035950,123.033386   C719.806824,124.322403 719.555908,125.591431 719.337952,126.693787   C720.598267,128.217010 721.801758,129.671555 723.005249,131.126114   C722.665405,131.484100 722.325623,131.842102 721.985840,132.200089   C720.108398,131.541504 718.231018,130.882919 715.381042,129.883179   C716.828918,127.402931 718.066711,125.282532 719.637695,123.067719   C719.970947,122.973305 720.014221,123.013397 720.035950,123.033386  z"/>
<path fill="#EDD6D7" opacity="1.000000" stroke="none" d=" M681.803589,248.109131   C681.912537,248.931747 681.713928,249.771988 681.283386,250.846222   C681.199646,250.095718 681.347839,249.111237 681.803589,248.109131  z"/>
<path fill="#EDD6D7" opacity="1.000000" stroke="none" d=" M683.863831,245.120956   C683.700256,245.984329 683.173096,246.879456 682.365356,247.922302   C682.556641,247.097595 683.028442,246.125153 683.863831,245.120956  z"/>
<path fill="#ECD8DA" opacity="1.000000" stroke="none" d=" M424.136414,106.000229   C424.139069,99.676376 423.917053,93.838203 424.285126,88.037476   C424.391266,86.364571 426.242279,83.371040 427.214142,83.402832   C438.622498,83.775993 450.219116,83.528748 461.356873,85.622169   C472.905060,87.792740 480.944305,96.363899 484.285736,107.304214   C490.955078,129.140549 490.605682,150.980057 479.209625,171.526840   C472.784698,183.110764 462.314453,188.566742 449.216309,188.960999   C442.732605,189.156174 436.226440,188.759247 429.752808,189.080521   C425.332672,189.299911 424.023682,187.728745 424.052063,183.375610   C424.218994,157.751358 424.135406,132.125488 424.136414,106.000229  z"/>
<path fill="#EDD6D7" opacity="1.000000" stroke="none" d=" M720.195679,250.107910   C720.666016,248.111343 721.244385,246.532028 721.509094,244.901749   C722.122925,241.121262 724.654846,240.205399 727.688171,241.278427   C731.378296,242.583832 730.449829,245.909348 729.528076,248.474152   C728.273438,251.964981 723.729919,252.773605 720.195679,250.107910  z"/>
<path fill="#EDD6D7" opacity="1.000000" stroke="none" d=" M853.959839,241.743866   C856.569336,244.584595 856.195862,247.653625 853.993103,249.485733   C851.907959,251.220047 848.756653,251.672638 845.648926,252.850082   C845.596985,242.741180 847.380310,240.531204 853.959839,241.743866  z"/>
<path fill="#EDD6D7" opacity="1.000000" stroke="none" d=" M696.990417,121.993225   C699.417969,130.646454 696.192139,138.290024 692.393677,145.699051   C691.792725,146.871170 689.450500,147.523254 687.864197,147.621475   C687.286255,147.657242 685.798767,145.201126 686.033752,144.183884   C687.544922,137.640518 689.198853,131.106171 691.355713,124.755600   C691.798401,123.452133 694.568298,122.939056 696.640564,122.037186   C697.015625,122.012695 696.996643,122.002327 696.990417,121.993225  z"/>
<path fill="#ECD9DB" opacity="1.000000" stroke="none" d=" M714.881531,146.101044   C714.688904,145.961472 714.626831,145.694321 714.564758,145.427170   C714.710510,145.435135 714.856201,145.443085 715.135010,145.582077   C715.268005,145.713120 715.012085,145.973465 714.881531,146.101044  z"/>
</svg>