<svg xmlns="http://www.w3.org/2000/svg" xmlns:xlink="http://www.w3.org/1999/xlink" version="1.1" id="Layer_1" x="0px" y="0px" width="100%" viewBox="0 0 1068 340" enable-background="new 0 0 1068 340" xml:space="preserve">
<path fill="#C89093" opacity="1.000000" stroke="none" d=" M501.268219,194.322571   C491.081787,200.112045 480.451538,203.490265 469.157471,203.900040   C457.020935,204.340393 444.856079,203.999496 432.352051,203.999496   C432.352051,221.270325 432.352051,238.328751 432.352051,256.000488   C440.067505,256.000488 447.836395,256.000153 455.605286,256.000580   C463.134216,256.001007 463.137634,256.001404 462.994781,263.703461   C462.977081,264.659027 462.899994,265.613464 462.839752,266.774078   C434.246521,266.774078 405.973022,266.774078 377.695374,266.773132   C377.497101,266.520691 377.148743,266.279480 377.131104,266.016174   C376.460938,256.000763 376.465027,256.000488 386.584229,256.000488   C389.882599,256.000488 393.180969,256.000488 397.234161,256.000488   C397.234161,201.001709 397.234161,146.395020 397.234161,91.999992   C392.603607,91.999992 388.045441,92.010040 383.487335,91.997574   C377.143341,91.980217 377.006958,91.840317 377.000336,85.672203   C376.998566,84.015549 377.000061,82.358894 377.000061,80.000084   C378.937073,80.000084 380.695282,80.000076 382.453522,80.000084   C411.786560,80.000168 441.144104,79.279854 470.443176,80.277634   C487.309448,80.852013 503.575470,85.432137 515.966858,98.462532   C524.278076,107.202263 528.120361,117.920212 530.009949,129.565048   C532.749573,146.448257 529.185913,162.001465 520.185730,176.381729   C515.511353,183.850327 509.316864,189.807938 501.268219,194.322571  M432.066284,92.160416   C432.066284,126.587395 432.066284,161.014374 432.066284,195.003372   C440.422913,195.003372 448.518311,195.325851 456.570923,194.878830   C461.182892,194.622803 465.995636,193.780518 470.249725,192.050674   C484.257141,186.354813 490.133087,173.680679 492.583740,160.459503   C495.312500,145.737900 496.102631,130.415741 491.003906,115.637779   C486.256531,101.878113 475.558289,92.490120 460.279327,92.013954   C451.010742,91.725113 441.737732,91.577690 432.066284,92.160416  z"/>
<path fill="#C89093" opacity="1.000000" stroke="none" d=" M272.048065,91.845642   C268.769958,90.703255 269.002838,92.973022 269.001465,94.992432   C268.996368,102.492348 268.999207,109.992271 268.999176,117.492188   C268.999146,134.463303 268.999176,151.434418 268.999176,167.963989   C281.516144,167.963989 293.725342,168.439438 305.871277,167.768753   C312.197144,167.419464 317.557007,159.535919 317.994873,152.346970   C318.025208,151.848801 317.996613,151.347198 318.001099,150.847244   C318.092102,140.703598 319.815643,139.437653 329.999054,142.423080   C329.999054,155.618393 329.999084,168.928360 329.999084,182.238342   C329.999084,187.738281 329.999603,193.238235 329.998932,198.738174   C329.998077,205.747772 326.953369,208.057449 320.204987,205.838806   C319.220245,205.515045 318.240936,203.758209 318.099609,202.564926   C317.749115,199.605759 318.411438,196.462189 317.726685,193.619141   C315.680115,185.121277 309.689392,181.600555 302.145966,181.160828   C291.363922,180.532318 280.517914,181.000809 269.349854,181.000809   C269.349854,205.941696 269.349854,230.666412 269.349854,255.860382   C282.052338,255.860382 294.804413,255.860382 307.607849,255.860382   C308.110504,258.016052 308.715942,259.726715 308.874725,261.477875   C309.205383,265.124664 308.148865,267.121582 303.706879,267.094177   C274.208313,266.911987 244.707855,266.945099 215.208694,267.067810   C211.460999,267.083374 209.606491,266.311249 209.919769,262.107971   C210.185333,258.544769 210.138702,255.626648 215.162628,255.912247   C221.599442,256.278168 228.072815,256.001160 234.760559,256.001160   C234.760559,200.954102 234.760559,146.349854 234.760559,91.981094   C228.072479,91.981094 221.358307,92.209869 214.668106,91.907669   C209.450546,91.671982 209.993149,87.591301 209.939453,83.878525   C209.893112,80.675797 211.378296,79.962906 214.224442,79.965698   C263.887360,80.014412 313.550323,80.000862 363.606262,80.000862   C363.606262,97.855728 363.606262,115.582726 363.606262,133.655365   C360.737885,133.655365 357.674988,133.655365 354.592285,133.655365   C352.766388,125.545738 351.188080,117.305763 349.020355,109.223892   C346.399567,99.452942 336.906891,92.339302 326.785797,92.011864   C324.455017,91.936462 322.119751,91.997948 318.985474,91.705338   C303.411438,91.311974 288.638489,91.200836 273.865387,91.139191   C273.260620,91.136665 272.653870,91.599579 272.048065,91.845642  z"/>
<path fill="#C89093" opacity="1.000000" stroke="none" d=" M510.000000,52.000175   C528.135925,52.000175 545.771912,52.000175 563.702881,52.000175   C563.702881,63.383034 563.702881,74.440071 563.702881,85.749321   C558.312378,85.749321 553.037598,85.749321 547.252075,85.749321   C547.252075,80.465263 547.252075,75.060555 547.252075,69.332504   C430.027954,69.332504 313.310822,69.332504 196.085236,69.332504   C196.085236,74.707260 196.085236,80.112137 196.085236,85.749443   C189.978043,85.749443 184.370148,85.749443 178.379852,85.749443   C178.379852,74.787758 178.379852,63.728264 178.379852,52.000175   C288.671356,52.000175 399.085693,52.000175 510.000000,52.000175  z"/>
<path fill="#C89093" opacity="1.000000" stroke="none" d=" M459.000000,275.000122   C488.468414,275.000122 517.436829,275.000122 546.911987,275.000122   C546.911987,269.295349 546.911987,263.890259 546.911987,258.251678   C552.684998,258.251678 557.960022,258.251678 563.619019,258.251678   C563.619019,269.208435 563.619019,280.268158 563.619019,291.665527   C435.363739,291.665527 306.981079,291.665527 178.299316,291.665527   C178.299316,280.620422 178.299316,269.563446 178.299316,258.252380   C184.018585,258.252380 189.626266,258.252380 195.745026,258.252380   C195.745026,263.532349 195.745026,268.937012 195.745026,275.000122   C283.667542,275.000122 371.083771,275.000122 459.000000,275.000122  z"/>
<path fill="#CA8F92" opacity="1.000000" stroke="none" d=" M717.012451,273.935303   C719.596008,266.480042 721.790344,259.073914 723.993408,251.670380   C724.267822,250.748413 724.588379,249.840195 725.002197,248.574692   C723.921631,248.213943 722.840637,247.853043 721.759644,247.492142   C721.788696,247.328613 721.817749,247.165085 721.846802,247.001556   C726.301880,247.001556 730.790588,246.676575 735.198242,247.133789   C737.525757,247.375214 740.914062,248.422897 741.688721,250.095337   C742.947266,252.812302 742.346497,256.306213 739.160828,258.344482   C738.227417,258.941681 737.291382,259.534698 737.191223,259.598419   C737.191223,264.176483 737.191223,268.016144 737.191223,272.645691   C739.238525,270.649902 740.690186,269.234741 742.141907,267.819611   C742.645935,268.271210 743.150024,268.722839 743.654114,269.174469   C742.287720,271.045319 741.283875,273.570526 739.445312,274.589111   C737.847839,275.474121 734.903564,275.319702 733.320496,274.360474   C732.225708,273.697144 732.161804,270.886841 732.135559,269.028870   C732.108521,267.112915 733.196594,265.081360 732.824646,263.303802   C732.559143,262.034851 730.814026,260.499268 729.490112,260.221375   C728.535339,260.020935 726.538147,261.460510 726.137085,262.575562   C724.957947,265.853485 724.342896,269.334290 723.426208,273.064545   C724.592651,273.511292 725.853699,273.994232 727.863647,274.764038   C723.031738,274.764038 718.976807,274.764038 714.622681,274.764038   C715.156860,274.384460 715.372803,274.147888 715.637085,274.064850   C715.944702,273.968170 716.294495,274.005890 717.012451,273.935303  M730.359802,258.992584   C732.290161,257.451111 734.525452,256.164001 736.075684,254.305496   C738.127991,251.844818 737.102051,249.981766 734.253601,248.568420   C731.265930,247.085938 730.324158,248.962234 729.570129,251.010941   C728.737549,253.273056 728.215576,255.657104 727.722717,258.022308   C727.683350,258.211304 728.921814,258.666595 730.359802,258.992584  z"/>
<path fill="#C98F92" opacity="1.000000" stroke="none" d=" M867.754211,270.567993   C866.378479,273.789368 864.524414,275.208496 861.126648,275.099731   C857.227966,274.974945 856.851501,272.696411 857.112061,269.865875   C857.289307,267.940033 858.292603,266.036377 858.202332,264.157623   C858.135925,262.774445 857.148560,260.623169 856.117188,260.309967   C854.903809,259.941467 852.351562,260.789307 851.869934,261.811676   C850.507751,264.703308 849.597229,267.911133 849.163269,271.083893   C848.997620,272.295074 850.610901,273.749542 851.279114,274.868225   C848.121094,274.868225 844.138916,274.868225 840.998413,274.868225   C841.934875,273.294006 843.494873,271.510559 844.134521,269.442444   C846.234436,262.652954 848.000183,255.760162 849.988342,248.566986   C848.907532,248.201675 847.815613,247.832611 845.353210,247.000305   C851.481812,247.000305 856.163513,246.702972 860.777344,247.133011   C862.899231,247.330780 866.495972,248.797821 866.609375,249.963074   C866.860413,252.543869 865.537048,255.387604 864.424622,257.935913   C863.993408,258.923767 862.397278,259.403168 862.085571,259.611176   C862.578918,263.968231 863.000549,267.691467 863.423218,271.424500   C866.480896,267.428986 866.480896,267.428986 867.754211,270.567993  M853.017883,258.939911   C855.161560,258.345581 857.824829,258.327942 859.303406,256.995544   C860.795471,255.651001 861.640564,253.017181 861.700378,250.917770   C861.726685,249.995041 858.633972,247.904099 857.787720,248.268997   C856.208740,248.949829 854.939819,250.889328 854.092224,252.580811   C853.170532,254.420197 852.874817,256.573303 853.017883,258.939911  z"/>
<path fill="#C98F92" opacity="1.000000" stroke="none" d=" M742.998413,76.113708   C741.326111,82.433372 739.741394,88.371925 737.932617,94.241432   C737.512390,95.605301 736.328979,96.733978 735.496643,97.970856   C734.599670,96.808548 733.393799,95.772240 732.859375,94.462082   C730.556091,88.815811 728.449768,83.089256 725.700439,77.459724   C725.164795,83.861961 719.263550,89.654182 722.937439,96.999619   C722.277893,96.999619 720.445435,96.999619 718.613037,96.999619   C716.674988,96.999619 714.736877,96.999619 712.798828,96.999619   C717.205200,95.567879 718.358948,92.321220 719.157471,88.220245   C720.295227,82.375992 722.243713,76.689568 723.945862,70.576836   C722.908936,70.225151 721.809692,69.852325 720.223999,69.314499   C728.986938,68.589828 728.996033,68.586594 731.961975,76.916588   C732.612488,78.743706 733.183533,80.599495 733.772156,82.448135   C734.353943,84.275307 734.911560,86.110161 735.889221,89.261513   C737.792603,82.787498 739.486816,77.565422 740.720093,72.236656   C740.901123,71.454239 738.891968,70.164925 737.943237,69.160019   C741.276611,69.160019 744.699463,69.160019 747.215637,69.160019   C745.928406,71.161407 744.466431,73.434433 742.998413,76.113708  z"/>
<path fill="#CA8F92" opacity="1.000000" stroke="none" d=" M803.051270,76.735977   C803.145569,73.121780 802.884094,70.359154 798.671509,69.953850   C794.647278,69.566650 792.481262,70.967545 791.937378,75.109673   C791.652832,77.276978 790.730774,79.360588 790.076843,81.548355   C793.835815,83.001549 795.244690,80.297127 796.958740,78.137512   C797.542969,77.401375 798.240295,76.755020 798.885925,76.067657   C799.045776,77.130943 799.531006,78.268822 799.307373,79.244179   C798.481873,82.844658 797.422058,86.391411 796.450378,89.958366   C796.003784,90.056389 795.557190,90.154411 795.110596,90.252434   C794.735107,88.915497 794.520996,87.502541 793.937378,86.263626   C793.385498,85.092049 792.445618,84.103249 791.676392,83.034073   C790.785095,83.987068 789.467712,84.795097 789.084717,85.920967   C788.054321,88.949844 787.422729,92.114433 786.169617,97.049377   C790.931335,95.691467 794.820374,95.417480 797.632935,93.535057   C800.216187,91.806114 801.639587,88.344231 803.573914,85.645821   C803.941895,85.872894 804.309814,86.099968 804.677795,86.327042   C803.702637,89.796898 802.727478,93.266747 801.721619,96.845734   C793.787964,96.845734 785.982300,96.845734 777.580017,96.845734   C783.677979,94.802414 782.310120,89.217873 783.863037,85.226074   C785.663086,80.599037 786.458130,75.581017 787.764282,70.438103   C786.957031,70.205276 785.946167,69.913742 783.761353,69.283638   C792.422485,69.283638 799.886780,69.283638 807.571411,69.283638   C807.057556,71.583656 806.709412,73.970535 805.903503,76.191269   C805.690918,76.776993 804.064636,76.849670 803.051270,76.735977  z"/>
<path fill="#CA8F92" opacity="1.000000" stroke="none" d=" M691.997681,250.942627   C693.425964,249.703400 694.756897,248.774399 696.164490,247.981491   C703.838562,243.658569 709.704285,245.943283 711.688599,254.415482   C713.964661,264.133636 704.891052,276.897156 695.740173,276.027954   C691.753113,275.649231 687.400024,272.409729 687.092712,268.613068   C686.583923,262.328339 686.689575,256.058838 691.997681,250.942627  M693.003357,259.756775   C692.668579,262.337555 691.767944,265.009949 692.166748,267.471924   C692.527161,269.697510 693.870972,272.745056 695.597595,273.460968   C697.005371,274.044678 700.293640,272.241516 701.575745,270.587738   C705.888000,265.025696 706.629211,258.329285 705.920349,251.533264   C705.553589,248.017960 701.740356,246.625641 699.412476,249.283463   C696.899292,252.152954 695.138000,255.681107 693.003357,259.756775  z"/>
<path fill="#C98F92" opacity="1.000000" stroke="none" d=" M820.018799,274.999695   C816.038696,274.999512 812.549011,274.999512 807.448364,274.999512   C815.709900,272.968414 813.658936,266.336639 815.744446,262.022980   C817.661194,258.058380 817.926880,253.295563 818.994629,248.552826   C817.911255,248.202148 816.802307,247.843185 814.800659,247.195251   C823.387146,247.195251 830.996338,247.195251 839.114929,247.195251   C838.598022,250.258972 838.126648,253.052994 837.655212,255.847000   C837.248474,255.989395 836.841736,256.131775 836.435059,256.274170   C835.955139,255.157471 835.229797,254.080566 835.041138,252.916611   C834.468872,249.387253 832.441162,248.010422 828.976257,247.953613   C825.965820,247.904266 823.909058,248.170013 823.830811,252.085480   C823.780334,254.611969 822.465942,257.113190 821.718018,259.625732   C822.299988,260.010712 822.881897,260.395691 823.463867,260.780701   C825.939026,258.469543 828.414246,256.158386 830.889404,253.847229   C831.153381,253.995193 831.417358,254.143158 831.681335,254.291107   C830.367737,258.869507 829.054138,263.447876 827.543640,268.712616   C824.716309,266.107513 828.075623,259.511383 821.357971,261.318359   C820.232971,265.225952 819.079712,269.231659 817.907654,273.302643   C827.229370,276.581146 831.039185,269.973022 835.106812,262.973145   C836.233582,271.238831 833.195740,274.998138 826.497375,274.999329   C824.501343,274.999695 822.505249,274.999664 820.018799,274.999695  z"/>
<path fill="#C98F92" opacity="1.000000" stroke="none" d=" M763.001831,264.959961   C763.154907,261.200989 761.300415,260.617920 758.269714,261.279388   C757.240784,265.259247 756.194702,269.305450 755.118713,273.467102   C763.994507,276.057159 768.531677,270.802734 771.881653,263.336548   C773.155518,271.993225 770.603088,274.998291 763.125122,274.998901   C757.357361,274.999359 751.589600,274.998993 746.624207,274.998993   C753.872498,268.840485 752.363464,258.873505 755.827148,251.030228   C756.235901,250.104614 755.102478,248.497940 754.682068,247.201279   C761.099243,247.201279 768.280151,247.201279 776.527039,247.201279   C775.597656,250.503616 774.785645,253.388992 773.973572,256.274353   C773.387451,256.247101 772.801331,256.219849 772.215210,256.192596   C772.611755,250.908371 771.074768,247.286423 765.243347,248.034958   C758.000916,248.964630 761.671753,255.851868 758.629028,259.117310   C759.139160,259.612518 759.649231,260.107758 760.159363,260.602997   C762.825623,258.365875 765.491882,256.128754 769.048706,253.144394   C767.457214,258.999725 766.211853,263.581421 764.966553,268.163116   C764.458557,268.090637 763.950500,268.018127 763.442505,267.945648   C763.296021,267.091614 763.149597,266.237579 763.001831,264.959961  z"/>
<path fill="#CB8F91" opacity="1.000000" stroke="none" d=" M677.959106,77.755424   C676.948608,77.884804 675.543579,77.902596 675.073547,77.248474   C674.055237,75.831497 673.827881,73.787315 672.689697,72.532272   C671.611572,71.343376 669.498718,69.899002 668.352844,70.247993   C666.675598,70.758835 664.944336,72.557594 664.251770,74.228477   C663.896545,75.085434 665.493713,77.146797 666.653748,78.147949   C668.601257,79.828728 670.757019,81.429207 673.090576,82.466064   C677.153931,84.271515 678.046082,87.997932 676.673401,90.970993   C675.351074,93.835052 672.182129,96.529243 669.194763,97.724838   C666.824646,98.673447 663.498657,97.274498 660.605530,96.859344   C659.110718,96.644852 657.634155,96.302940 654.891663,95.777740   C655.775879,92.615540 656.868591,88.707779 657.961243,84.800018   C658.491943,84.846886 659.022583,84.893753 659.553223,84.940628   C660.535645,89.674538 660.618225,95.450752 666.946289,95.765442   C669.116089,95.873352 671.418884,93.309402 674.647034,91.375275   C670.937256,88.571022 668.692322,86.692131 666.267700,85.084221   C662.715088,82.728363 659.511108,80.126495 660.076111,75.349174   C660.743103,69.710403 667.357483,66.496552 673.177063,68.609375   C674.956299,69.255325 676.935974,69.349030 679.295105,69.782158   C678.931946,71.882278 678.460205,74.610733 677.959106,77.755424  z"/>
<path fill="#C98F92" opacity="1.000000" stroke="none" d=" M701.125183,155.353363   C692.835876,159.063995 687.601135,155.476135 688.198975,146.048676   C688.536255,140.731201 689.801208,135.423126 694.139587,131.051376   C697.715210,127.448181 701.895691,126.940529 705.252441,128.564682   C707.406555,129.606964 708.448303,134.180573 708.870422,137.321518   C709.836914,144.513229 707.461121,150.660385 701.125183,155.353363  M704.918823,133.818314   C704.315247,132.352371 703.711670,130.886414 702.675781,128.370483   C700.719421,130.488602 698.619446,131.883286 697.812500,133.817444   C696.092407,137.940140 695.125122,142.370377 693.691772,146.621460   C692.647461,149.718689 692.007629,153.123810 695.280090,154.587326   C696.163330,154.982330 699.806946,151.310989 700.787659,148.930984   C702.663635,144.378281 703.537903,139.412796 704.918823,133.818314  z"/>
<path fill="#CA8F92" opacity="1.000000" stroke="none" d=" M672.268433,143.303223   C668.366455,145.293518 664.765320,147.056503 660.955505,148.921631   C666.622925,153.639587 670.937927,152.681000 674.564148,145.195068   C675.143311,151.610672 672.911377,154.994171 669.354797,156.673309   C664.993530,158.732300 662.231750,155.266449 659.357666,152.203659   C659.497681,153.308914 659.637634,154.414169 659.810852,155.781784   C658.692505,155.833664 657.596008,155.884521 655.237488,155.993927   C656.269958,153.151001 656.477783,150.242798 658.039124,148.754364   C661.548157,145.409134 665.796814,142.852921 669.596558,139.792007   C670.824402,138.802933 672.235596,137.321671 672.410034,135.921906   C672.642822,134.054047 672.356079,131.307175 671.156616,130.324860   C670.141479,129.493576 667.254700,130.167313 665.667603,131.036102   C664.105286,131.891373 662.098328,133.689316 665.796143,135.192261   C666.711182,135.564209 666.871216,137.793610 667.509155,139.523895   C664.168091,140.072937 661.284546,141.126587 660.098328,137.339935   C659.315430,134.840866 663.482117,128.738342 666.188721,128.030167   C670.416565,126.923950 676.681091,128.819870 677.833862,131.554550   C679.431641,135.344681 677.341614,139.918472 672.268433,143.303223  z"/>
<path fill="#C88F92" opacity="1.000000" stroke="none" d=" M725.279907,130.243286   C728.866882,129.312332 732.205872,127.981346 735.450317,128.181656   C740.171082,128.473145 742.631104,135.784790 739.037292,139.189529   C735.915039,142.147552 731.812012,144.081573 728.100464,146.400970   C726.604248,147.335922 724.996338,148.092102 723.291504,149.009109   C731.546387,153.105606 731.546387,153.105606 736.079468,147.142029   C737.030090,150.221878 735.798340,154.254562 733.392334,155.857086   C728.049500,159.415710 725.465881,154.620178 722.731201,152.328461   C721.655823,153.775742 720.620605,155.169052 719.585388,156.562378   C717.428223,151.808670 718.553833,148.895691 722.324707,146.895691   C725.187012,145.377563 728.106750,143.777115 730.520142,141.664215   C732.393372,140.024155 734.104980,137.702713 734.775452,135.364929   C735.203552,133.872391 734.031250,131.301727 732.738220,130.185059   C732.049194,129.589996 729.510681,130.913895 727.939880,131.653870   C727.124756,132.037888 726.598938,133.036011 725.990845,133.703568   C726.207520,134.176239 726.267761,134.519409 726.470459,134.714890   C727.609558,135.813293 728.783081,136.876114 729.944824,137.951080   C728.626709,138.631653 727.100220,140.079147 726.044922,139.792374   C724.815369,139.458282 723.192627,137.612930 723.184387,136.413452   C723.170959,134.455750 724.326965,132.490036 725.279907,130.243286  z"/>
<path fill="#C98F92" opacity="1.000000" stroke="none" d=" M673.042603,262.134216   C671.952393,267.254028 671.952393,267.254028 668.968323,267.551025   C669.211548,266.559082 669.829956,265.517548 669.561768,264.814056   C669.048096,263.466766 668.030518,262.311584 667.222046,261.076660   C666.294861,261.749268 664.841614,262.239594 664.534119,263.126953   C663.382690,266.449310 662.605957,269.901550 661.568176,273.752289   C663.447632,273.922546 664.681946,274.034363 665.916260,274.146179   C665.918091,274.322357 665.919983,274.498505 665.921814,274.674683   C661.668518,274.674683 657.415161,274.674683 654.113098,274.674683   C654.933533,273.295654 656.492310,271.513550 657.131836,269.446960   C659.231201,262.662903 660.996948,255.775543 662.987122,248.579849   C661.918335,248.213455 660.834656,247.841949 658.889465,247.175110   C667.459229,247.175110 675.077637,247.175110 683.009949,247.175110   C682.211792,250.290558 681.478699,253.152267 680.745605,256.013977   C678.450867,251.782486 677.520996,246.700211 671.241943,248.038849   C664.728577,249.427444 667.857666,255.973953 665.237305,259.455170   C670.984436,262.342957 670.811340,254.887024 675.468018,253.379486   C674.459473,256.895599 673.767639,259.307648 673.042603,262.134216  z"/>
<path fill="#CA8F92" opacity="1.000000" stroke="none" d=" M682.746582,190.570389   C681.876892,193.611023 681.200256,196.259766 680.523682,198.908524   C680.161987,199.040680 679.800354,199.172836 679.438721,199.304993   C678.431335,195.817215 677.423950,192.329453 676.416565,188.841675   C675.631653,188.801712 674.846741,188.761749 674.061829,188.721771   C671.675415,197.194275 669.289062,205.666779 666.807678,214.476547   C668.363831,214.804504 669.699951,215.086075 671.036072,215.367661   C671.026550,215.496841 671.017029,215.626038 671.007507,215.755219   C666.343262,215.755219 661.678955,215.755219 657.014709,215.755219   C662.461975,215.560577 662.341003,211.333359 663.249390,207.515533   C664.660583,201.584152 666.549866,195.766525 668.269897,189.784698   C661.306091,189.273010 661.516357,196.199158 657.949097,199.193893   C656.175171,192.779602 659.400696,188.006348 665.189575,188.002151   C670.008911,187.998672 674.834778,187.867416 679.642761,188.101089   C680.772705,188.156006 681.842285,189.452957 682.746582,190.570389  z"/>
<path fill="#C98F92" opacity="1.000000" stroke="none" d=" M763.576538,70.173874   C757.547302,74.862144 755.648376,81.324539 755.212158,88.055603   C755.051086,90.540169 756.698792,94.100105 758.683594,95.413528   C759.913818,96.227631 763.629822,94.144104 765.679077,92.620308   C767.728271,91.096588 769.091614,88.650414 771.286316,87.071564   C770.405884,92.451546 767.862122,96.512749 762.405579,97.765068   C758.514526,98.658096 754.337891,98.315804 752.298157,94.531059   C750.771851,91.699127 750.076721,88.066612 750.123901,84.806641   C750.255188,75.724144 759.432556,66.923340 767.178833,68.044403   C769.869324,68.433784 772.500000,69.236229 775.491089,69.926933   C775.165527,71.058609 774.640503,72.828194 774.149109,74.607063   C773.652954,76.403244 773.190063,78.208633 772.518555,80.741936   C769.072021,76.873184 771.372314,69.387604 763.576538,70.173874  z"/>
<path fill="#C89093" opacity="1.000000" stroke="none" d=" M792.890625,248.069839   C791.988159,251.267212 791.347046,254.398026 791.046509,257.561218   C790.811646,260.032104 790.999451,262.543182 790.999451,266.436523   C794.512146,261.071289 797.565308,256.839508 800.071228,252.305298   C800.780090,251.022583 799.889771,248.855988 799.741821,247.195251   C802.661377,247.195251 806.393066,247.195251 808.894409,247.195251   C806.526733,250.084564 803.594788,253.294067 801.087097,256.806488   C797.040161,262.474854 793.295959,268.358704 789.362000,274.109253   C788.773132,274.970062 787.848450,275.601105 786.000366,277.372253   C786.000366,268.008850 786.133240,260.244598 785.902771,252.491135   C785.848145,250.653198 784.574463,248.851486 783.909546,247.155518   C786.932190,247.155518 791.013733,247.155518 795.098999,247.155518   C795.090454,247.313248 795.116028,247.442230 795.070557,247.537201   C795.004272,247.675507 794.900269,247.881607 794.789001,247.897736   C794.296753,247.969025 793.796204,247.982697 792.890625,248.069839  z"/>
<path fill="#CA8F92" opacity="1.000000" stroke="none" d=" M720.962341,206.830200   C722.200623,201.879318 723.565430,197.376480 724.524170,192.788757   C724.825073,191.348907 724.033691,189.680817 723.742920,188.120453   C726.610962,188.120453 730.391724,188.120453 733.097595,188.120453   C731.940430,190.017227 730.065613,192.061676 729.354858,194.452225   C727.380920,201.090805 725.891113,207.873337 724.229919,214.519669   C733.125732,217.201294 737.321960,211.522552 740.824707,204.069305   C742.831543,211.205139 739.603394,215.994370 733.812622,215.997757   C727.488892,216.001465 721.165161,215.998627 716.290283,215.998627   C717.697693,213.344681 719.314880,210.295059 720.962341,206.830200  z"/>
<path fill="#C98F92" opacity="1.000000" stroke="none" d=" M755.772705,188.002060   C759.504883,188.000732 762.828857,188.000732 764.959900,188.000732   C763.797058,189.771194 761.872131,191.729187 761.103149,194.067337   C759.287537,199.587753 757.999939,205.283432 756.552246,210.921982   C756.245544,212.116440 756.166870,213.369461 755.985657,214.578613   C764.816833,215.528625 766.032898,214.844986 770.100708,207.551804   C770.729126,206.425186 771.988281,205.650360 772.955688,204.712845   C773.289124,204.962997 773.622559,205.213150 773.955994,205.463303   C772.832214,208.894882 771.708435,212.326462 770.550232,215.863144   C762.672607,215.863144 754.867737,215.863144 748.105652,215.863144   C749.003662,214.305740 750.541138,212.472900 751.186462,210.366699   C753.266541,203.578613 755.017883,196.689774 756.976868,189.544571   C755.906250,189.199341 754.835938,188.854233 752.896667,188.228897   C754.374268,188.093872 754.869385,188.048630 755.772705,188.002060  z"/>
<path fill="#CA8F92" opacity="1.000000" stroke="none" d=" M701.272644,203.387543   C700.484436,206.279358 699.661865,208.777863 699.406860,211.332993   C699.259338,212.811539 700.026367,214.381348 700.382019,215.911285   C697.419556,215.911285 693.768433,215.911285 689.605530,215.911285   C695.590576,213.758179 694.356018,208.205917 695.876526,204.178009   C697.631531,199.529068 698.470703,194.534409 699.775635,189.423309   C698.939331,189.197601 697.923889,188.923523 695.476440,188.262955   C701.026855,188.262955 705.116211,188.262955 709.363098,188.262955   C701.853455,190.702118 704.034119,198.105896 701.272644,203.387543  z"/>
<path fill="#CA8F92" opacity="1.000000" stroke="none" d=" M695.315063,87.304581   C696.940552,81.494514 698.333618,76.031715 699.778992,70.363853   C698.848389,70.140656 697.828857,69.896118 696.809265,69.651581   C696.832947,69.495934 696.856689,69.340294 696.880371,69.184654   C700.945312,69.184654 705.010254,69.184654 708.976074,69.184654   C703.461121,71.677307 697.193970,93.531052 701.315857,96.872330   C697.379028,96.872330 693.597839,96.872330 689.816650,96.872330   C695.246155,95.854576 693.647156,90.877251 695.315063,87.304581  z"/>
<path fill="#C98F92" opacity="1.000000" stroke="none" d=" M763.261963,144.409668   C762.403442,147.931564 761.740417,151.081482 761.017456,154.515869   C762.027039,154.798187 763.040161,155.081528 765.370056,155.733093   C759.734680,155.733093 755.433289,155.733093 751.131836,155.733093   C755.891785,155.387024 756.563477,151.942017 757.122559,148.094955   C757.512695,145.410431 758.359741,142.721603 759.443237,140.225922   C760.878784,136.919159 759.914490,135.625275 755.047424,136.029449   C759.809814,132.958771 763.376892,130.658768 766.943970,128.358765   C767.169922,128.692032 767.395874,129.025299 767.621765,129.358551   C766.233643,134.251602 764.845520,139.144638 763.261963,144.409668  z"/>
<path fill="#FFBFBF" opacity="1.000000" stroke="none" d=" M272.509033,91.915688   C272.653870,91.599579 273.260620,91.136665 273.865387,91.139191   C288.638489,91.200836 303.411438,91.311974 318.523438,91.628403   C303.565033,91.890289 288.267517,91.938011 272.509033,91.915688  z"/>
</svg>