<svg fill="#000000" width="16px" height="16px" viewBox="0 0 1.12 1.12" xmlns="http://www.w3.org/2000/svg" version="1.1" xmlns:xlink="http://www.w3.org/1999/xlink" transform="rotate(180)">
  <path d="M0.843 0.871c0.023 0 0.04 -0.016 0.04 -0.042 0 -0.022 -0.011 -0.034 -0.031 -0.043L0.347 0.561v-0.005L0.852 0.334c0.02 -0.009 0.031 -0.022 0.031 -0.043 0 -0.025 -0.017 -0.042 -0.042 -0.042 -0.012 0 -0.021 0.003 -0.03 0.008L0.285 0.499c-0.027 0.012 -0.048 0.034 -0.048 0.063 0 0.03 0.021 0.051 0.048 0.063l0.527 0.237c0.01 0.005 0.019 0.009 0.032 0.009"/>
</svg>
