<svg fill="#000000" width="24px" height="24px" viewBox="0 0 1.56 1.56" xmlns="http://www.w3.org/2000/svg" version="1.1" xmlns:xlink="http://www.w3.org/1999/xlink" transform="matrix(6.123233995736766e-17,1,-1,6.123233995736766e-17,0,0)">
  <path d="M1.489 1.358 1.087 0.96a0.567 0.567 0 1 0 -1.023 -0.276A0.567 0.567 0 0 0 0.96 1.088l0.399 0.399a0.043 0.043 0 0 0 0.063 0l0.063 -0.063a0.05 0.05 0 0 0 0.004 -0.066m-0.861 -0.345a0.387 0.387 0 1 1 0.387 -0.387 0.386 0.386 0 0 1 -0.387 0.387" fill-rule="evenodd"/>
</svg>
